<svg height="512" viewBox="0 0 128 128" width="512" xmlns="http://www.w3.org/2000/svg" xmlns:xlink="http://www.w3.org/1999/xlink"><linearGradient id="a" gradientUnits="userSpaceOnUse" x1="114.865" x2="9.339" y1="127.86" y2="22.334"><stop offset="0" stop-color="#f77c90"/><stop offset="1" stop-color="#8cc9fe"/></linearGradient><path d="m112.348 58.833h-20.241v-57.083a1.75 1.75 0 0 0 -1.75-1.75h-57.957a1.794 1.794 0 0 0 -1.238.513l-20.747 20.745a1.776 1.776 0 0 0 -.515 1.242v103.75a1.751 1.751 0 0 0 1.75 1.75h100.7a5.757 5.757 0 0 0 5.75-5.75v-57.667a5.757 5.757 0 0 0 -5.752-5.75zm-49.73 5.75v59.917h-49.218v-100.262l19-.079a1.75 1.75 0 0 0 -.008-3.5h-.002l-16.49.068 14.747-14.752v6.105a1.75 1.75 0 0 0 3.5 0v-8.58h54.46v55.333h-20.239a5.757 5.757 0 0 0 -5.75 5.75zm51.982 57.667a2.253 2.253 0 0 1 -2.25 2.25h-46.232v-59.917a2.253 2.253 0 0 1 2.25-2.25h43.98a2.253 2.253 0 0 1 2.25 2.25zm-25.85-37.616h-4.775a1.75 1.75 0 0 1 0-3.5h4.775a1.75 1.75 0 0 1 0 3.5zm21.35-16.05v14.3a1.751 1.751 0 0 1 -1.75 1.75h-7.99a1.75 1.75 0 0 1 0-3.5h6.24v-10.8h-32.482v12.55a1.75 1.75 0 1 1 -3.5 0v-14.3a1.75 1.75 0 0 1 1.75-1.75h35.98a1.751 1.751 0 0 1 1.752 1.75zm0 26.7a1.751 1.751 0 0 1 -1.75 1.75h-7.99a1.75 1.75 0 0 1 0-3.5h7.99a1.751 1.751 0 0 1 1.75 1.746zm-27.99 0a1.751 1.751 0 0 1 -1.75 1.75h-7.99a1.75 1.75 0 0 1 0-3.5h7.99a1.751 1.751 0 0 1 1.748 1.746zm13.995 0a1.751 1.751 0 0 1 -1.75 1.75h-7.99a1.75 1.75 0 0 1 0-3.5h7.99a1.751 1.751 0 0 1 1.745 1.746zm14 10a1.751 1.751 0 0 1 -1.75 1.75h-7.99a1.75 1.75 0 0 1 0-3.5h7.99a1.751 1.751 0 0 1 1.745 1.746zm-27.99 0a1.751 1.751 0 0 1 -1.75 1.75h-7.99a1.75 1.75 0 0 1 0-3.5h7.99a1.751 1.751 0 0 1 1.743 1.746zm13.995 0a1.751 1.751 0 0 1 -1.75 1.75h-7.99a1.75 1.75 0 0 1 0-3.5h7.99a1.751 1.751 0 0 1 1.74 1.746zm14 10a1.751 1.751 0 0 1 -1.75 1.75h-7.99a1.75 1.75 0 0 1 0-3.5h7.99a1.751 1.751 0 0 1 1.74 1.746zm-27.99 0a1.751 1.751 0 0 1 -1.75 1.75h-7.99a1.75 1.75 0 0 1 0-3.5h7.99a1.751 1.751 0 0 1 1.738 1.746zm13.995 0a1.751 1.751 0 0 1 -1.75 1.75h-7.99a1.75 1.75 0 0 1 0-3.5h7.99a1.751 1.751 0 0 1 1.735 1.746zm-71.361-76.333a1.75 1.75 0 0 1 1.746-1.751h49a1.75 1.75 0 0 1 0 3.5h-49a1.751 1.751 0 0 1 -1.746-1.749zm50.752 15.769h-49a1.75 1.75 0 0 1 0-3.5h49a1.75 1.75 0 0 1 0 3.5zm-18.25 12.27a1.749 1.749 0 0 1 -1.75 1.75h-29a1.75 1.75 0 0 1 0-3.5h29a1.75 1.75 0 0 1 1.75 1.75zm0 14.02a1.75 1.75 0 0 1 -1.75 1.75h-29a1.75 1.75 0 0 1 0-3.5h29a1.749 1.749 0 0 1 1.75 1.75zm0 14.02a1.75 1.75 0 0 1 -1.75 1.75h-29a1.75 1.75 0 0 1 0-3.5h29a1.75 1.75 0 0 1 1.75 1.75zm0 14.019a1.749 1.749 0 0 1 -1.75 1.75h-29a1.75 1.75 0 1 1 0-3.5h29a1.75 1.75 0 0 1 1.75 1.75z" fill="url(#a)"/></svg>
