<svg height="512" viewBox="0 0 128 128" width="512" xmlns="http://www.w3.org/2000/svg" xmlns:xlink="http://www.w3.org/1999/xlink"><linearGradient id="a" gradientUnits="userSpaceOnUse" x1="120.118" x2="7.882" y1="120.118" y2="7.882"><stop offset="0" stop-color="#f77c90"/><stop offset="1" stop-color="#8cc9fe"/></linearGradient><path d="m25.75 16.489a1.75 1.75 0 0 1 1.75-1.75h4.5a1.75 1.75 0 0 1 0 3.5h-4.5a1.75 1.75 0 0 1 -1.75-1.75zm28.682 70.481a1.75 1.75 0 0 1 -3.215 1.383l-1.841-4.282h-6.169l-1.84 4.282a1.75 1.75 0 0 1 -3.216-1.383l2.29-5.327v-.007l4.24-9.859a1.75 1.75 0 0 1 3.215 0l4.239 9.858v.01zm-6.561-6.4-1.58-3.67-1.579 3.673zm25.262-3.939v6.869a5.92 5.92 0 0 1 -5.913 5.913h-6.41a1.75 1.75 0 0 1 -1.75-1.75v-15.194a1.75 1.75 0 0 1 1.75-1.75h6.41a5.92 5.92 0 0 1 5.913 5.913zm-3.5 0a2.415 2.415 0 0 0 -2.413-2.413h-4.66v11.693h4.66a2.415 2.415 0 0 0 2.413-2.411zm18.608-2.413a1.75 1.75 0 0 0 0-3.5h-8.965a1.75 1.75 0 0 0 -1.75 1.75v7.6a1.75 1.75 0 0 0 1.75 1.75h7.215v4.1h-7.215a1.75 1.75 0 0 0 0 3.5h8.965a1.75 1.75 0 0 0 1.75-1.75v-7.6a1.751 1.751 0 0 0 -1.75-1.75h-7.215v-4.1zm-8.877-22.7a4.3 4.3 0 0 0 -2.6-3.983l-22.026-9.684a4.35 4.35 0 0 0 -6.1 3.982v19.377a4.343 4.343 0 0 0 6.1 3.982l3.236-1.422a1.75 1.75 0 0 0 -1.41-3.2l-3.235 1.423a.85.85 0 0 1 -1.193-.779v-19.381a.85.85 0 0 1 1.193-.779l22.027 9.688a.852.852 0 0 1 0 1.559l-9.963 4.383a1.75 1.75 0 1 0 1.409 3.2l9.963-4.384a4.3 4.3 0 0 0 2.599-3.978zm43.406 48.395h3.48a1.75 1.75 0 0 1 1.75 1.75v9.848a1.75 1.75 0 0 1 -1.75 1.75h-124.5a1.75 1.75 0 0 1 -1.75-1.75v-9.848a1.75 1.75 0 0 1 1.75-1.75h3.48v-71.826h-3.48a1.75 1.75 0 0 1 -1.75-1.75v-9.848a1.75 1.75 0 0 1 1.75-1.75h14a1.75 1.75 0 1 1 0 3.5h-12.25v6.348h121v-6.348h-80.75a1.75 1.75 0 0 1 0-3.5h82.5a1.75 1.75 0 0 1 1.75 1.75v9.848a1.75 1.75 0 0 1 -1.75 1.75h-3.48zm-18.529 0v-71.826h-80.482v71.826zm-95.511-30.131h11.529v-11.564h-11.529zm11.529-26.63h-11.529v11.566h11.529zm-11.529 41.696h11.529v-11.566h-11.529zm99.011-15.066h11.529v-11.564h-11.529zm11.529-26.63h-11.529v11.566h11.529zm-11.529 41.7h11.529v-11.57h-11.529zm0-56.761v11.561h11.529v-11.565zm-99.011 0v11.561h11.529v-11.565zm0 71.826h11.529v-11.569h-11.529zm115.77 3.5h-121v6.348h121zm-5.23-3.5v-11.569h-11.529v11.565z" fill="url(#a)"/></svg>
