<svg height="512" viewBox="0 0 128 128" width="512" xmlns="http://www.w3.org/2000/svg" xmlns:xlink="http://www.w3.org/1999/xlink"><linearGradient id="a" gradientUnits="userSpaceOnUse" x1="109.102" x2="18.787" y1="107.29" y2="16.975"><stop offset="0" stop-color="#f77c90"/><stop offset="1" stop-color="#8cc9fe"/></linearGradient><path d="m64 64.131a16.77 16.77 0 1 0 -16.77-16.77 16.789 16.789 0 0 0 16.77 16.77zm0-30.039a13.27 13.27 0 1 1 -13.27 13.269 13.284 13.284 0 0 1 13.27-13.269zm28.706.769a14.266 14.266 0 0 1 14.25-14.25 1.75 1.75 0 0 1 0 3.5 10.75 10.75 0 1 0 8.73 4.477 1.75 1.75 0 1 1 2.841-2.045 14.25 14.25 0 1 1 -25.821 8.318zm-71.662 14.25a14.25 14.25 0 1 0 -14.25-14.25 14.265 14.265 0 0 0 14.25 14.25zm0-25a10.75 10.75 0 1 1 -10.75 10.75 10.762 10.762 0 0 1 10.75-10.75zm93.206 28.523h-14.589a13.767 13.767 0 0 0 -13.75 13.75v3.216a13.643 13.643 0 0 0 -5.881-1.34h-32.06a13.643 13.643 0 0 0 -5.881 1.34v-3.216a13.767 13.767 0 0 0 -13.75-13.75h-14.589a13.766 13.766 0 0 0 -13.75 13.75v19.63a5.757 5.757 0 0 0 5.75 5.75h28.47v9.875a5.757 5.757 0 0 0 5.75 5.75h48.06a5.757 5.757 0 0 0 5.75-5.75v-9.875h28.47a5.757 5.757 0 0 0 5.75-5.75v-19.63a13.767 13.767 0 0 0 -13.75-13.75zm-108.5 35.63a2.252 2.252 0 0 1 -2.25-2.25v-19.63a10.261 10.261 0 0 1 10.25-10.25h14.589a10.261 10.261 0 0 1 10.25 10.25v5.572a13.909 13.909 0 0 0 -4.369 10.053v6.255zm84.53 13.375a2.253 2.253 0 0 1 -2.25 2.25h-48.06a2.253 2.253 0 0 1 -2.25-2.25v-19.63a10.313 10.313 0 0 1 10.25-10.25h32.06a10.313 10.313 0 0 1 10.25 10.25zm34.22-15.625a2.252 2.252 0 0 1 -2.25 2.25h-28.47v-6.255a13.909 13.909 0 0 0 -4.369-10.053v-5.572a10.261 10.261 0 0 1 10.25-10.25h14.589a10.261 10.261 0 0 1 10.25 10.25zm-61.219 11.625a1.75 1.75 0 0 1 -1.75 1.75h-1.761a1.75 1.75 0 1 1 0-3.5h1.761a1.749 1.749 0 0 1 1.75 1.75zm22.5-15.63v15.63a1.751 1.751 0 0 1 -1.75 1.75h-13.011a1.75 1.75 0 0 1 0-3.5h11.26v-13.88a2.253 2.253 0 0 0 -2.25-2.25h-32.06a2.253 2.253 0 0 0 -2.25 2.25v13.88h4.561a1.75 1.75 0 0 1 0 3.5h-6.311a1.751 1.751 0 0 1 -1.75-1.75v-15.63a5.757 5.757 0 0 1 5.75-5.75h32.06a5.757 5.757 0 0 1 5.75 5.75zm-21.781-25.878a8.77 8.77 0 1 0 -8.77-8.77 8.78 8.78 0 0 0 8.77 8.77zm0-14.039a5.27 5.27 0 1 1 -5.27 5.269 5.276 5.276 0 0 1 5.27-5.269zm36.706-7.231a6.25 6.25 0 1 0 6.25-6.25 6.256 6.256 0 0 0 -6.25 6.25zm9 0a2.75 2.75 0 1 1 -2.75-2.75 2.753 2.753 0 0 1 2.75 2.75zm-88.662 6.25a6.25 6.25 0 1 0 -6.25-6.25 6.256 6.256 0 0 0 6.25 6.25zm0-9a2.75 2.75 0 1 1 -2.75 2.75 2.753 2.753 0 0 1 2.75-2.75zm93.206 28.523h-14.589a5.757 5.757 0 0 0 -5.75 5.75v3.143a1.748 1.748 0 0 0 .384 1.094 18.286 18.286 0 0 1 3.985 11.388 1.751 1.751 0 0 0 1.75 1.75h18.22a1.751 1.751 0 0 0 1.75-1.75v-15.625a5.757 5.757 0 0 0 -5.75-5.75zm2.25 19.63h-14.791a21.814 21.814 0 0 0 -4.3-11.336v-2.544a2.253 2.253 0 0 1 2.25-2.25h14.591a2.253 2.253 0 0 1 2.25 2.25zm-88.161-19.63h-14.589a5.757 5.757 0 0 0 -5.75 5.75v15.63a1.751 1.751 0 0 0 1.75 1.75h18.22a1.755 1.755 0 0 0 1.75-1.755 18.286 18.286 0 0 1 3.985-11.388 1.748 1.748 0 0 0 .384-1.094v-3.143a5.757 5.757 0 0 0 -5.75-5.75zm2.25 8.294a21.8 21.8 0 0 0 -4.3 11.336h-14.789v-13.88a2.253 2.253 0 0 1 2.25-2.25h14.589a2.253 2.253 0 0 1 2.25 2.25z" fill="url(#a)"/></svg>
