<svg height="512" viewBox="0 0 128 128" width="512" xmlns="http://www.w3.org/2000/svg" xmlns:xlink="http://www.w3.org/1999/xlink"><linearGradient id="a" gradientUnits="userSpaceOnUse" x1="111.352" x2="16.648" y1="123.395" y2="28.69"><stop offset="0" stop-color="#f77c90"/><stop offset="1" stop-color="#8cc9fe"/></linearGradient><path d="m28.623 50h70.753a1.749 1.749 0 0 0 1.745-1.623 38.048 38.048 0 0 0 -10.121-28.648 36.955 36.955 0 0 0 -54.008 0 38.05 38.05 0 0 0 -10.118 28.65 1.75 1.75 0 0 0 1.749 1.621zm10.931-27.882a32.928 32.928 0 0 1 24.299-10.618h.309a32.928 32.928 0 0 1 24.284 10.617 34.556 34.556 0 0 1 9.264 24.383h-67.42a34.547 34.547 0 0 1 9.264-24.382zm61.669 43.669v50.5a3.755 3.755 0 0 1 -3.75 3.75h-66.945a3.754 3.754 0 0 1 -3.75-3.75v-7.921a1.75 1.75 0 0 1 3.5 0v7.921a.25.25 0 0 0 .25.25h66.945a.251.251 0 0 0 .25-.25v-50.5a4.255 4.255 0 0 0 -4.25-4.25h-58.945a4.255 4.255 0 0 0 -4.25 4.25v9.9a1.75 1.75 0 0 1 -3.5 0v-9.9a7.759 7.759 0 0 1 7.75-7.75h58.945a7.759 7.759 0 0 1 7.75 7.75zm-74.445 29.229v-5.977a1.75 1.75 0 0 1 3.5 0v5.977a1.75 1.75 0 0 1 -3.5 0zm54.159-12.306a6.282 6.282 0 0 0 6.275-6.275v-3.948h2.524a1.75 1.75 0 1 0 0-3.5h-51.472a1.75 1.75 0 0 0 0 3.5h36.4v3.948a6.282 6.282 0 0 0 6.273 6.275zm2.775-10.223v3.948a2.775 2.775 0 0 1 -5.55 0v-3.948zm-42.027-37.2a6.287 6.287 0 0 1 6.28-6.28h24.785a1.75 1.75 0 0 1 0 3.5h-24.785a2.78 2.78 0 1 0 0 5.56h32.069a2.78 2.78 0 0 0 1.966-4.747 1.75 1.75 0 1 1 2.475-2.476 6.281 6.281 0 0 1 -4.441 10.721h-32.069a6.287 6.287 0 0 1 -6.28-6.28zm84.565 33.59h-17.124v-23.751a45.127 45.127 0 0 0 -90.253 0v23.749h-17.123a1.751 1.751 0 0 0 -1.75 1.75v33.744a5.757 5.757 0 0 0 5.75 5.75h13.123v8.131a9.762 9.762 0 0 0 9.75 9.75h70.753a9.761 9.761 0 0 0 9.75-9.75v-8.131h13.124a5.756 5.756 0 0 0 5.75-5.75v-33.744a1.75 1.75 0 0 0 -1.75-1.75zm-1.75 3.5v6.623h-15.374v-6.625zm-121 0h15.373v6.623h-15.373zm2.25 34.244a2.252 2.252 0 0 1 -2.25-2.25v-21.871h15.373v24.123zm99.876 11.631a6.257 6.257 0 0 1 -6.25 6.25h-70.753a6.257 6.257 0 0 1 -6.25-6.25v-73.126a41.627 41.627 0 0 1 83.253 0zm18.874-13.883a2.253 2.253 0 0 1 -2.25 2.25h-13.124v-24.119h15.374z" fill="url(#a)"/></svg>