<svg height="512" viewBox="0 0 128 128" width="512" xmlns="http://www.w3.org/2000/svg" xmlns:xlink="http://www.w3.org/1999/xlink"><linearGradient id="a" gradientUnits="userSpaceOnUse" x1="114.717" x2="13.283" y1="110.129" y2="8.695"><stop offset="0" stop-color="#f77c90"/><stop offset="1" stop-color="#8cc9fe"/></linearGradient><path d="m105.3 0h-82.595a1.751 1.751 0 0 0 -1.75 1.75v97.375a1.751 1.751 0 0 0 1.75 1.75h28.17v14.125h-14a6.758 6.758 0 0 0 -6.75 6.75v4.5a1.751 1.751 0 0 0 1.75 1.75h64.25a1.751 1.751 0 0 0 1.75-1.75v-4.5a6.758 6.758 0 0 0 -6.75-6.75h-14v-14.125h7.938a1.75 1.75 0 0 0 0-3.5h-60.608v-93.875h20.42v8.5h-14.17a1.75 1.75 0 0 0 -1.75 1.75v8.75a1.75 1.75 0 1 0 3.5 0v-7h63.09v73.875h-63.09v-39.937a1.75 1.75 0 0 0 -3.5 0v41.687a1.751 1.751 0 0 0 1.75 1.75h66.595a1.751 1.751 0 0 0 1.75-1.75v-77.374a1.75 1.75 0 0 0 -1.75-1.751h-14.175v-8.5h20.42v93.875h-7.42a1.75 1.75 0 0 0 0 3.5h9.17a1.751 1.751 0 0 0 1.75-1.75v-97.378a1.751 1.751 0 0 0 -1.745-1.747zm-10.925 121.75v2.75h-60.75v-2.75a3.254 3.254 0 0 1 3.25-3.25h54.25a3.254 3.254 0 0 1 3.25 3.25zm-20.75-20.875v14.125h-19.25v-14.125zm6-88.874h-31.25v-8.501h31.25zm-50.67 26.187v-4.443a1.75 1.75 0 0 1 3.5 0v4.443a1.75 1.75 0 0 1 -3.5 0zm8 44.937a1.751 1.751 0 0 0 1.75 1.75h50.595a1.751 1.751 0 0 0 1.75-1.75v-29.263a1.751 1.751 0 0 0 -1.75-1.75h-50.595a1.751 1.751 0 0 0 -1.75 1.75zm3.5-27.513h47.09v25.763h-47.09zm-1.75-8.007h50.595a1.75 1.75 0 0 0 1.388-2.805l-18.335-24.1a1.813 1.813 0 0 0 -2.786 0l-10.734 14.1-5.567-7.32a1.813 1.813 0 0 0 -2.786 0l-13.168 17.32a1.75 1.75 0 0 0 1.393 2.809zm32.255-22.964 14.805 19.464h-29.61l3.822-5.025zm-19.087 6.793 4.761 6.259-.977 1.285-3.9 5.127h-9.522zm31.172 32.566a1.751 1.751 0 0 1 -1.75 1.75h-34.59a1.75 1.75 0 0 1 0-3.5h34.595a1.751 1.751 0 0 1 1.745 1.75zm0 8.987a1.751 1.751 0 0 1 -1.75 1.75h-34.59a1.75 1.75 0 0 1 0-3.5h34.595a1.751 1.751 0 0 1 1.745 1.75z" fill="url(#a)"/></svg>
