<?xml version="1.0" encoding="UTF-8"?>
<svg xmlns="http://www.w3.org/2000/svg" xmlns:xlink="http://www.w3.org/1999/xlink" width="512" height="512" viewBox="0 0 128 128"><defs><linearGradient id="a" x1="116.532" y1="124.535" x2="11.468" y2="19.471" gradientUnits="userSpaceOnUse"><stop offset="0" stop-color="#f77c90"/><stop offset="1" stop-color="#8cc9fe"/></linearGradient></defs><path d="M122.25,27.567h-41.3V22.69a5.756,5.756,0,0,0-5.75-5.75H72.989L82.933,2.754A1.75,1.75,0,0,0,80.067.744L68.714,16.94H59.286L47.933.744a1.75,1.75,0,0,0-2.866,2.01L55.011,16.94H52.8a5.756,5.756,0,0,0-5.75,5.75v4.877H31.861a1.75,1.75,0,1,0,0,3.5H122.25a2.253,2.253,0,0,1,2.25,2.25V110.69a2.253,2.253,0,0,1-2.25,2.25H5.75a2.253,2.253,0,0,1-2.25-2.25V33.317a2.253,2.253,0,0,1,2.25-2.25H18a1.75,1.75,0,0,0,0-3.5H5.75A5.757,5.757,0,0,0,0,33.317V110.69a5.757,5.757,0,0,0,5.75,5.75h10.5v6.807A4.756,4.756,0,0,0,21,128H31.813a4.756,4.756,0,0,0,4.75-4.75V116.44H91.438v6.807a4.755,4.755,0,0,0,4.75,4.75H107a4.756,4.756,0,0,0,4.75-4.75V116.44h10.5a5.757,5.757,0,0,0,5.75-5.75V33.317A5.757,5.757,0,0,0,122.25,27.567Zm-71.7,0V22.69a2.252,2.252,0,0,1,2.25-2.25H75.2a2.252,2.252,0,0,1,2.25,2.25v4.877Zm-17.489,95.68a1.252,1.252,0,0,1-1.25,1.25H21a1.251,1.251,0,0,1-1.25-1.25V116.44H33.063Zm75.187,0A1.252,1.252,0,0,1,107,124.5H96.188a1.251,1.251,0,0,1-1.25-1.25V116.44H108.25ZM8,37.317V106.69a1.75,1.75,0,0,0,1.75,1.75H85.176a1.749,1.749,0,0,0,1.75-1.75V37.317a1.75,1.75,0,0,0-1.75-1.75H9.75A1.751,1.751,0,0,0,8,37.317Zm3.5,1.75H83.426V104.94H11.5ZM91.433,98.249a1.75,1.75,0,0,1,3.5,0v6.691H116.5V39.067H94.933v29.42a1.75,1.75,0,0,1-3.5,0V37.317a1.75,1.75,0,0,1,1.75-1.75H118.25a1.751,1.751,0,0,1,1.75,1.75V106.69a1.75,1.75,0,0,1-1.75,1.75H93.183a1.749,1.749,0,0,1-1.75-1.75Zm0-12.564V81.052a1.75,1.75,0,0,1,3.5,0v4.633a1.75,1.75,0,0,1-3.5,0Zm9.75-31.918h9.067a1.751,1.751,0,0,0,1.75-1.75v-6.7a1.751,1.751,0,0,0-1.75-1.75h-9.067a1.75,1.75,0,0,0-1.75,1.75v6.7A1.75,1.75,0,0,0,101.183,53.767Zm1.75-6.7H108.5v3.2h-5.567ZM99.433,65a1.749,1.749,0,0,0,1.75,1.75h9.067A1.75,1.75,0,0,0,112,65V58.3a1.75,1.75,0,0,0-1.75-1.75h-9.067a1.749,1.749,0,0,0-1.75,1.75Zm3.5-4.949H108.5v3.2h-5.567Zm-3.5,38.641a1.749,1.749,0,0,0,1.75,1.75h9.067A1.75,1.75,0,0,0,112,98.69V72a1.75,1.75,0,0,0-1.75-1.75h-9.067A1.749,1.749,0,0,0,99.433,72Zm3.5-24.936H108.5V96.94h-5.567Zm-66.8-.259-.005-.011-4.072-9.47a1.75,1.75,0,0,0-3.215,0l-4.073,9.47,0,.011-2.2,5.115a1.749,1.749,0,1,0,3.214,1.383l1.752-4.072h5.837l1.751,4.072a1.75,1.75,0,0,0,3.215-1.383Zm-7.1-1.074,1.413-3.286,1.413,3.286Zm21.522-9.466H44.4a1.75,1.75,0,0,0-1.75,1.75V79.3a1.75,1.75,0,0,0,1.75,1.75h6.159a5.757,5.757,0,0,0,5.75-5.75v-6.6A5.757,5.757,0,0,0,50.557,62.955ZM52.807,75.3a2.253,2.253,0,0,1-2.25,2.25H46.148v-11.1h4.409a2.253,2.253,0,0,1,2.25,2.25Zm11.084-8.847v3.8h6.864A1.75,1.75,0,0,1,72.505,72v7.3a1.75,1.75,0,0,1-1.75,1.75H62.141a1.75,1.75,0,0,1,0-3.5h6.864v-3.8H62.141A1.75,1.75,0,0,1,60.391,72v-7.3a1.75,1.75,0,0,1,1.75-1.75h8.614a1.75,1.75,0,0,1,0,3.5Z" fill="url(#a)"/></svg>
