<svg height="512" viewBox="0 0 128 128" width="512" xmlns="http://www.w3.org/2000/svg" xmlns:xlink="http://www.w3.org/1999/xlink"><linearGradient id="a" gradientUnits="userSpaceOnUse" x1="100.899" x2="43.908" y1="90.992" y2="34.001"><stop offset="0" stop-color="#f77c90"/><stop offset="1" stop-color="#8cc9fe"/></linearGradient><path d="m127.843 5.75v17.125a5.756 5.756 0 0 1 -5.75 5.75 1.75 1.75 0 0 1 0-3.5 2.253 2.253 0 0 0 2.25-2.25v-17.125a2.253 2.253 0 0 0 -2.25-2.25h-41.805a2.253 2.253 0 0 0 -2.25 2.25v17.125a2.253 2.253 0 0 0 2.25 2.25h5.029a1.749 1.749 0 0 1 1.75 1.75v7.979l9.218-9.216a1.752 1.752 0 0 1 1.237-.513h12.478a1.75 1.75 0 0 1 0 3.5h-11.753l-11.692 11.691a1.75 1.75 0 0 1 -2.988-1.237v-10.454h-3.279a5.756 5.756 0 0 1 -5.75-5.75v-17.125a5.756 5.756 0 0 1 5.75-5.75h41.805a5.756 5.756 0 0 1 5.75 5.75zm-14.49 2.914h-24.326a1.75 1.75 0 0 0 0 3.5h24.326a1.75 1.75 0 0 0 0-3.5zm0 7h-24.326a1.75 1.75 0 1 0 0 3.5h24.326a1.75 1.75 0 0 0 0-3.5zm-50.065 29.21a1.75 1.75 0 1 0 -2.752 2.164l1.789 2.276a1.751 1.751 0 0 0 2.752-2.165zm29.136 24.566a5.417 5.417 0 0 1 -.906 7.6l-.307.242a5.416 5.416 0 0 1 -7.6-.906l-.082-.105-28.529 12.485a1.415 1.415 0 0 1 -.111.108l-5.54 4.358 3.5 4.448a4.863 4.863 0 0 1 -.537 6.618l19.178 13.187a1.749 1.749 0 0 1 .091 2.817l-9.317 7.33a1.752 1.752 0 0 1 -2.074.068l-20.042-13.782-.091.072a4.915 4.915 0 0 1 -6.894-.822l-3.523-4.478a9.663 9.663 0 0 1 -11.955-1.132l-1.546 1.217a9.581 9.581 0 0 1 -5.948 2.067 9.925 9.925 0 0 1 -1.163-.069 9.585 9.585 0 0 1 -6.439-3.616l-.523-.664a9.646 9.646 0 0 1 1.618-13.549l1.546-1.217a9.7 9.7 0 0 1 2.692-12.7l24.049-18.923 19.091-25.1-.083-.1a5.406 5.406 0 0 1 .907-7.6l.309-.243a5.408 5.408 0 0 1 7.594.908l8.6 10.929 1.733-1.364a5.7 5.7 0 0 1 8 .955l8.392 10.669a5.7 5.7 0 0 1 -.955 8l-1.734 1.364zm-10.762-13.678 1.738-1.362a2.2 2.2 0 0 0 .37-3.088l-8.398-10.669a2.2 2.2 0 0 0 -3.088-.37l-1.733 1.364zm-30.312 31.438-18.415-23.412-21.476 16.9 18.416 23.408zm-37.375 18.815 1.467-1.154-4.522-5.749-3.606-4.582-1.466 1.154a6.15 6.15 0 0 0 -1.032 8.635l.523.664a6.151 6.151 0 0 0 8.636 1.032zm13.058.123-18.233-23.175a6.139 6.139 0 0 0 -.078 7.7c2.761 3.511 8.057 10.24 10.813 13.745a6.138 6.138 0 0 0 7.5 1.735zm40.515 12.874-18.083-12.434-6.436 5.064 18.083 12.433zm-35.134-12.466 3.5 4.448a1.413 1.413 0 0 0 1.981.235l11.968-9.416a1.406 1.406 0 0 0 .236-1.977l-3.5-4.447zm57.259-34.946-32.634-41.478a1.909 1.909 0 0 0 -2.682-.32l-.309.243a1.909 1.909 0 0 0 -.319 2.68l4.665 5.928a1.75 1.75 0 0 1 -2.75 2.164l-2.344-2.982-17.86 23.478 13.66 17.358 5.178 6.582 27.022-11.828-14.079-17.892a1.75 1.75 0 1 1 2.75-2.164l16.393 20.839a1.913 1.913 0 0 0 2.683.319l.305-.241a1.912 1.912 0 0 0 .321-2.686z" fill="url(#a)"/></svg>
