<svg height="512" viewBox="0 0 128 128" width="512" xmlns="http://www.w3.org/2000/svg" xmlns:xlink="http://www.w3.org/1999/xlink"><linearGradient id="a" gradientUnits="userSpaceOnUse" x1="94.451" x2="31.678" y1="90.741" y2="27.968"><stop offset="0" stop-color="#f77c90"/><stop offset="1" stop-color="#8cc9fe"/></linearGradient><path d="m71.652 65.723v41.707a5.631 5.631 0 0 1 -5.625 5.625h-34.127a1.75 1.75 0 0 1 0-3.5h34.127a2.127 2.127 0 0 0 2.125-2.125v-41.707a2.127 2.127 0 0 0 -2.125-2.123h-60.41a2.128 2.128 0 0 0 -2.126 2.125v43.832h7.946a1.751 1.751 0 0 1 1.75 1.75v13.122a19.535 19.535 0 0 0 12.457-5.968 1.75 1.75 0 1 1 2.521 2.428 23.028 23.028 0 0 1 -16.728 7.111 1.75 1.75 0 0 1 -1.75-1.75v-13.2h-7.946a1.751 1.751 0 0 1 -1.75-1.75v-45.577a5.632 5.632 0 0 1 5.626-5.623h60.41a5.631 5.631 0 0 1 5.625 5.623zm-41.452 20.854a5.625 5.625 0 1 1 5.622 5.623 5.631 5.631 0 0 1 -5.622-5.623zm3.5 0a2.125 2.125 0 1 0 2.125-2.125 2.128 2.128 0 0 0 -2.125 2.125zm21.5 5.623a5.625 5.625 0 1 1 5.625-5.625 5.632 5.632 0 0 1 -5.625 5.625zm0-3.5a2.125 2.125 0 1 0 -2.125-2.125 2.128 2.128 0 0 0 2.125 2.125zm-38.752-7.75a5.625 5.625 0 1 1 -5.625 5.625 5.631 5.631 0 0 1 5.623-5.623zm0 3.5a2.125 2.125 0 1 0 2.125 2.125 2.127 2.127 0 0 0 -2.127-2.123zm105.936-84.45h-60.411a5.632 5.632 0 0 0 -5.626 5.625v41.708a5.632 5.632 0 0 0 5.626 5.625h2.274a1.75 1.75 0 0 0 0-3.5h-2.274a2.129 2.129 0 0 1 -2.126-2.125v-41.708a2.129 2.129 0 0 1 2.126-2.125h60.411a2.128 2.128 0 0 1 2.125 2.125v43.833h-7.947a1.75 1.75 0 0 0 -1.75 1.75v13.121a19.649 19.649 0 0 1 -17.044-13.653 1.75 1.75 0 0 0 -1.668-1.218h-5.728a1.75 1.75 0 1 0 0 3.5h4.486a23.141 23.141 0 0 0 21.7 14.947 1.75 1.75 0 0 0 1.75-1.75v-13.2h7.947a1.75 1.75 0 0 0 1.75-1.75v-45.58a5.632 5.632 0 0 0 -5.621-5.625zm-43.509 49.458h-3.131a1.75 1.75 0 0 0 0 3.5h3.131a1.75 1.75 0 0 0 0-3.5zm13.303-17.358a5.625 5.625 0 1 1 5.622-5.621 5.631 5.631 0 0 1 -5.622 5.621zm0-3.5a2.125 2.125 0 1 0 -2.125-2.125 2.127 2.127 0 0 0 2.125 2.125zm-19.378 3.5a5.625 5.625 0 1 1 5.625-5.625 5.631 5.631 0 0 1 -5.625 5.625zm2.125-5.625a2.125 2.125 0 1 0 -2.125 2.125 2.127 2.127 0 0 0 2.127-2.121zm36.629 5.625a5.625 5.625 0 1 1 5.625-5.625 5.631 5.631 0 0 1 -5.625 5.625zm0-3.5a2.125 2.125 0 1 0 -2.125-2.125 2.127 2.127 0 0 0 2.125 2.125z" fill="url(#a)"/></svg>
