<svg height="512" viewBox="0 0 128 128" width="512" xmlns="http://www.w3.org/2000/svg" xmlns:xlink="http://www.w3.org/1999/xlink"><linearGradient id="a" gradientUnits="userSpaceOnUse" x1="115.544" x2="12.456" y1="132.85" y2="29.763"><stop offset="0" stop-color="#f77c90"/><stop offset="1" stop-color="#8cc9fe"/></linearGradient><path d="m48.25 75.922a1.75 1.75 0 0 1 -1.75 1.75h-3.049a1.75 1.75 0 1 1 0-3.5h3.049a1.75 1.75 0 0 1 1.75 1.75zm48.984 1.75a22.764 22.764 0 0 0 .223-45.526l-4.457-.046-1.411-4.228a29.086 29.086 0 0 0 -55.178 0l-1.411 4.228-4.457.042a22.764 22.764 0 0 0 .223 45.526 1.75 1.75 0 0 0 0-3.5 19.263 19.263 0 0 1 -.19-38.526l5.7-.054a1.752 1.752 0 0 0 1.644-1.2l1.806-5.412a25.586 25.586 0 0 1 48.538 0l1.811 5.424a1.751 1.751 0 0 0 1.644 1.2l5.705.054a19.263 19.263 0 0 1 -.19 38.526h-38.049a1.75 1.75 0 0 0 0 3.5zm-42.364-20.382a1.75 1.75 0 1 1 -3.215 1.382l-1.755-4.072h-5.833l-1.752 4.072a1.749 1.749 0 0 1 -3.215-1.382l2.2-5.112.008-.019 4.071-9.466a1.75 1.75 0 0 1 3.215 0l4.074 9.474zm-6.47-6.19-1.414-3.286-1.414 3.286zm12.536 8.631a1.751 1.751 0 0 1 -1.75-1.75v-14.6a1.751 1.751 0 0 1 1.75-1.75h6.159a5.757 5.757 0 0 1 5.75 5.75v6.6a5.757 5.757 0 0 1 -5.75 5.75zm1.75-3.5h4.409a2.253 2.253 0 0 0 2.25-2.25v-6.6a2.253 2.253 0 0 0 -2.25-2.25h-4.41zm15.993 0a1.75 1.75 0 0 0 0 3.5h8.614a1.75 1.75 0 0 0 1.75-1.75v-7.3a1.749 1.749 0 0 0 -1.75-1.75h-6.865v-3.8h6.864a1.75 1.75 0 0 0 0-3.5h-8.614a1.75 1.75 0 0 0 -1.75 1.75v7.3a1.75 1.75 0 0 0 1.75 1.75h6.864v3.8zm49.321 55.438v8a1.75 1.75 0 0 1 -1.75 1.75h-39.391v4.83a1.749 1.749 0 0 1 -1.75 1.75h-42.218a1.749 1.749 0 0 1 -1.75-1.75v-4.83h-39.391a1.75 1.75 0 0 1 -1.75-1.75v-8a1.75 1.75 0 0 1 1.75-1.75h39.391v-4.831a1.75 1.75 0 0 1 1.75-1.75h15.359v-17.666h-27.484a30.763 30.763 0 0 1 -1.536-61.488 37.086 37.086 0 0 1 69.539 0 30.763 30.763 0 0 1 -1.535 61.488h-27.484v17.666h15.359a1.75 1.75 0 0 1 1.75 1.75v4.831h14.266a1.75 1.75 0 0 1 0 3.5h-14.266v4.5h37.641v-4.5h-9.875a1.75 1.75 0 0 1 0-3.5h11.625a1.75 1.75 0 0 1 1.75 1.75zm-97.234-29.5h66.468a27.263 27.263 0 0 0 .266-54.522 1.752 1.752 0 0 1 -1.644-1.2 33.585 33.585 0 0 0 -63.714 0 1.752 1.752 0 0 1 -1.644 1.2 27.263 27.263 0 0 0 .267 54.525zm30.984 21.169h4.5v-17.666h-4.5zm-20.609 14.581v-4.5h-37.641v4.5zm42.218-11.081h-38.718v17.662h38.718z" fill="url(#a)"/></svg>