<svg height="512" viewBox="0 0 128 128" width="512" xmlns="http://www.w3.org/2000/svg" xmlns:xlink="http://www.w3.org/1999/xlink"><linearGradient id="a" gradientUnits="userSpaceOnUse" x1="118.539" x2="9.461" y1="118.539" y2="9.461"><stop offset="0" stop-color="#f77c90"/><stop offset="1" stop-color="#8cc9fe"/></linearGradient><path d="m122.25 15.55h-116.5a5.757 5.757 0 0 0 -5.75 5.75v85.4a5.757 5.757 0 0 0 5.75 5.75h116.5a5.757 5.757 0 0 0 5.75-5.75v-85.4a5.757 5.757 0 0 0 -5.75-5.75zm0 93.4h-116.5a2.252 2.252 0 0 1 -2.25-2.25v-64.01h68.439a1.75 1.75 0 0 0 0-3.5h-68.439v-17.89a2.252 2.252 0 0 1 2.25-2.25h116.5a2.252 2.252 0 0 1 2.25 2.25v17.89h-15a1.75 1.75 0 0 0 0 3.5h15v64.01a2.252 2.252 0 0 1 -2.25 2.25zm-35.561-68.01a1.751 1.751 0 0 1 1.75-1.75h4.561a1.75 1.75 0 0 1 0 3.5h-4.561a1.75 1.75 0 0 1 -1.75-1.75zm-71.022-18.57a6.75 6.75 0 1 0 6.75 6.75 6.758 6.758 0 0 0 -6.75-6.75zm0 10a3.25 3.25 0 1 1 3.25-3.25 3.254 3.254 0 0 1 -3.25 3.25zm16-10a6.75 6.75 0 1 0 6.75 6.75 6.758 6.758 0 0 0 -6.75-6.75zm0 10a3.25 3.25 0 1 1 3.25-3.25 3.254 3.254 0 0 1 -3.25 3.25zm16-10a6.75 6.75 0 1 0 6.75 6.75 6.758 6.758 0 0 0 -6.75-6.75zm0 10a3.25 3.25 0 1 1 3.25-3.25 3.254 3.254 0 0 1 -3.25 3.25zm3.612 35.7-8.368 8.368 8.368 8.362a1.75 1.75 0 0 1 0 2.474l-5.657 5.657a1.75 1.75 0 1 1 -2.475-2.475l4.419-4.419-8.366-8.366a1.749 1.749 0 0 1 0-2.475l8.367-8.367-3.182-3.183-12.785 12.788 5.516 5.516a1.75 1.75 0 1 1 -2.475 2.474l-6.753-6.753a1.751 1.751 0 0 1 0-2.475l15.259-15.262a1.8 1.8 0 0 1 2.475 0l5.657 5.657a1.752 1.752 0 0 1 0 2.475zm33.574-8.132a1.8 1.8 0 0 0 -2.475 0l-5.657 5.657a1.749 1.749 0 0 0 0 2.475l8.368 8.368-8.368 8.362a1.748 1.748 0 0 0 0 2.474l5.657 5.657a1.749 1.749 0 0 0 2.475 0l15.262-15.262a1.751 1.751 0 0 0 0-2.475zm-1.237 29.283-3.182-3.182 8.366-8.368a1.749 1.749 0 0 0 0-2.475l-8.367-8.367 3.182-3.183 12.785 12.788zm-11.372-36.448-7.878-1.392a1.749 1.749 0 0 0 -2.028 1.419l-8 45.267a1.749 1.749 0 0 0 1.418 2.028l7.878 1.393a1.749 1.749 0 0 0 2.028-1.419l8-45.267a1.75 1.75 0 0 0 -1.418-2.029zm-9.724 44.963-4.431-.783 7.391-41.821 4.431.783z" fill="url(#a)"/></svg>
