<?xml version="1.0" encoding="UTF-8"?>
<svg xmlns="http://www.w3.org/2000/svg" xmlns:xlink="http://www.w3.org/1999/xlink" width="512" height="512" viewBox="0 0 128 128"><defs><linearGradient id="a" x1="117.507" y1="119.496" x2="10.493" y2="12.483" gradientUnits="userSpaceOnUse"><stop offset="0" stop-color="#f77c90"/><stop offset="1" stop-color="#8cc9fe"/></linearGradient></defs><path d="M64,51.2a16.77,16.77,0,1,0,16.769,16.77A16.789,16.789,0,0,0,64,51.2Zm0,30.039A13.27,13.27,0,1,1,77.269,67.973,13.286,13.286,0,0,1,64,81.242Zm42.955-11.519a14.25,14.25,0,1,0-14.25-14.25A14.267,14.267,0,0,0,106.955,69.723Zm0-25a10.75,10.75,0,1,1-10.75,10.75A10.762,10.762,0,0,1,106.955,44.723Zm-85.91,25A14.25,14.25,0,1,0,6.8,55.473,14.267,14.267,0,0,0,21.045,69.723Zm0-25A10.75,10.75,0,1,1,10.3,55.473,10.762,10.762,0,0,1,21.045,44.723ZM114.25,73.246H99.661A13.765,13.765,0,0,0,85.911,87V90.21a13.644,13.644,0,0,0-5.882-1.34H47.971a13.644,13.644,0,0,0-5.882,1.34V87a13.765,13.765,0,0,0-13.75-13.75H13.75A13.765,13.765,0,0,0,0,87v19.629a5.756,5.756,0,0,0,5.75,5.75H34.221v9.875a5.756,5.756,0,0,0,5.75,5.75H88.029a5.756,5.756,0,0,0,5.75-5.75v-9.875H122.25a5.756,5.756,0,0,0,5.75-5.75V87A13.765,13.765,0,0,0,114.25,73.246ZM5.75,108.875a2.253,2.253,0,0,1-2.25-2.25V87a10.261,10.261,0,0,1,10.25-10.25H28.339A10.261,10.261,0,0,1,38.589,87v5.571a13.906,13.906,0,0,0-4.368,10.053v6.255ZM90.279,122.25a2.253,2.253,0,0,1-2.25,2.25H39.971a2.253,2.253,0,0,1-2.25-2.25V102.62a10.311,10.311,0,0,1,10.25-10.25H80.029a10.312,10.312,0,0,1,10.25,10.25ZM124.5,106.625a2.253,2.253,0,0,1-2.25,2.25H93.779V102.62a13.906,13.906,0,0,0-4.368-10.053V87a10.261,10.261,0,0,1,10.25-10.25H114.25A10.261,10.261,0,0,1,124.5,87Zm-38.721-4V118.25a1.749,1.749,0,0,1-1.75,1.75H43.971a1.749,1.749,0,0,1-1.75-1.75V102.621a5.756,5.756,0,0,1,5.75-5.75,1.75,1.75,0,0,1,0,3.5,2.253,2.253,0,0,0-2.25,2.25V116.5H82.279V102.621a2.253,2.253,0,0,0-2.25-2.25H66.406a1.75,1.75,0,0,1,0-3.5H80.029A5.756,5.756,0,0,1,85.779,102.621Zm-31.028-4a1.749,1.749,0,0,1,1.75-1.75h1.374a1.75,1.75,0,0,1,0,3.5H56.5A1.749,1.749,0,0,1,54.751,98.621ZM64,59.2a8.77,8.77,0,1,0,8.769,8.77A8.78,8.78,0,0,0,64,59.2Zm0,14.04a5.27,5.27,0,1,1,5.269-5.27A5.276,5.276,0,0,1,64,73.243Zm42.955-11.52a6.25,6.25,0,1,0-6.25-6.25A6.257,6.257,0,0,0,106.955,61.723Zm0-9a2.75,2.75,0,1,1-2.75,2.75A2.752,2.752,0,0,1,106.955,52.723Zm-85.91,9a6.25,6.25,0,1,0-6.25-6.25A6.257,6.257,0,0,0,21.045,61.723Zm0-9a2.75,2.75,0,1,1-2.75,2.75A2.753,2.753,0,0,1,21.045,52.723ZM114.25,81.246H99.661A5.756,5.756,0,0,0,93.911,87v3.143a1.751,1.751,0,0,0,.384,1.093,18.291,18.291,0,0,1,3.984,11.388v.006a1.749,1.749,0,0,0,1.75,1.75H118.25a1.749,1.749,0,0,0,1.75-1.75V87A5.756,5.756,0,0,0,114.25,81.246Zm2.25,19.63H101.709a21.818,21.818,0,0,0-4.3-11.337V87a2.253,2.253,0,0,1,2.25-2.25H114.25A2.253,2.253,0,0,1,116.5,87ZM28.339,81.246H13.75A5.756,5.756,0,0,0,8,87v15.63a1.749,1.749,0,0,0,1.75,1.75H27.971a1.755,1.755,0,0,0,1.75-1.756,18.291,18.291,0,0,1,3.984-11.388,1.751,1.751,0,0,0,.384-1.093V87A5.756,5.756,0,0,0,28.339,81.246Zm2.25,8.293a21.807,21.807,0,0,0-4.3,11.337H11.5V87a2.253,2.253,0,0,1,2.25-2.25H28.339A2.253,2.253,0,0,1,30.589,87ZM49.131,30.866,47.98,45.546A1.751,1.751,0,0,0,50.394,47.3L64,41.67,77.605,47.3a1.75,1.75,0,0,0,2.414-1.754l-1.15-14.68,9.559-11.2a1.75,1.75,0,0,0-.922-2.837L73.19,13.387,65.492.835a1.75,1.75,0,0,0-2.984,0l-7.7,12.552L40.494,16.83a1.75,1.75,0,0,0-.922,2.837Zm7.2-14.246a1.75,1.75,0,0,0,1.083-.786L64,5.1l6.585,10.737a1.75,1.75,0,0,0,1.083.786l12.245,2.945-8.176,9.581a1.749,1.749,0,0,0-.414,1.272l.984,12.557L64.669,38.159a1.749,1.749,0,0,0-1.338,0L51.693,42.975l.984-12.557a1.753,1.753,0,0,0-.414-1.272l-8.176-9.581Zm36.792,1.422a1.75,1.75,0,0,1,.922-2.837l7.425-1.785,3.992-6.51a1.75,1.75,0,0,1,2.984,0l3.992,6.51,7.425,1.785a1.75,1.75,0,0,1,.922,2.837l-5.427,6.36a1.75,1.75,0,1,1-2.662-2.271l3.574-4.191-5.354-1.287a1.747,1.747,0,0,1-1.083-.786l-2.879-4.694-2.879,4.694a1.747,1.747,0,0,1-1.083.786L97.639,17.94l3.575,4.191a1.749,1.749,0,0,1,.414,1.272l-.43,5.491,5.088-2.106a1.743,1.743,0,0,1,1.338,0l7.726,3.2a1.751,1.751,0,0,1-.67,3.368,1.73,1.73,0,0,1-.668-.133l-7.057-2.92L99.9,33.219a1.751,1.751,0,0,1-2.414-1.754l.6-7.613Zm-80.953,5.81-.6,7.613a1.75,1.75,0,0,0,2.414,1.754l7.057-2.92,7.056,2.92a1.751,1.751,0,0,0,2.414-1.754l-.6-7.613,4.958-5.81a1.75,1.75,0,0,0-.922-2.837L26.529,13.42,22.537,6.91a1.75,1.75,0,0,0-2.984,0L15.56,13.42,8.136,15.205a1.75,1.75,0,0,0-.922,2.837Zm4.912-7.2a1.747,1.747,0,0,0,1.083-.786l2.879-4.694,2.879,4.694a1.747,1.747,0,0,0,1.083.786l5.354,1.287-3.575,4.191a1.749,1.749,0,0,0-.414,1.272l.43,5.491-5.088-2.106a1.743,1.743,0,0,0-1.338,0l-5.09,2.106.431-5.491a1.753,1.753,0,0,0-.414-1.272L11.728,17.94ZM57.365,28.19l-.39,4.977a1.75,1.75,0,0,0,2.414,1.754L64,33.012l4.611,1.909a1.75,1.75,0,0,0,2.414-1.754l-.39-4.977,3.24-3.793a1.751,1.751,0,0,0-.922-2.838L68.1,20.391l-2.61-4.255a1.75,1.75,0,0,0-2.984,0L59.9,20.391l-4.851,1.168a1.751,1.751,0,0,0-.922,2.838Zm4.056-4.566a1.75,1.75,0,0,0,1.083-.786L64,20.4l1.5,2.441a1.75,1.75,0,0,0,1.083.786l2.781.67L67.5,26.469a1.751,1.751,0,0,0-.414,1.273l.223,2.854L64.669,29.5a1.749,1.749,0,0,0-1.338,0L60.687,30.6l.224-2.854a1.751,1.751,0,0,0-.414-1.273L58.64,24.294Z" fill="url(#a)"/></svg>
