<?xml version="1.0" encoding="UTF-8"?>
<svg xmlns="http://www.w3.org/2000/svg" xmlns:xlink="http://www.w3.org/1999/xlink" width="512" height="512" viewBox="0 0 128 128"><defs><linearGradient id="a" x1="121.586" y1="121.586" x2="6.414" y2="6.414" gradientUnits="userSpaceOnUse"><stop offset="0" stop-color="#f77c90"/><stop offset="1" stop-color="#8cc9fe"/></linearGradient></defs><path d="M99.63,46.386v5.177a1.75,1.75,0,0,1-3.5,0V46.386a1.75,1.75,0,1,1,3.5,0Zm18.913-20.635v96.5a5.756,5.756,0,0,1-5.75,5.75H34.12a5.757,5.757,0,0,1-5.75-5.75V108H15.206a5.757,5.757,0,0,1-5.75-5.75V5.749A5.757,5.757,0,0,1,15.206,0H93.88a5.757,5.757,0,0,1,5.75,5.75V20h13.163A5.756,5.756,0,0,1,118.543,25.751Zm-3.5,0a2.253,2.253,0,0,0-2.25-2.25H99.63v10.45a1.75,1.75,0,0,1-3.5,0V5.749A2.253,2.253,0,0,0,93.88,3.5H15.206a2.253,2.253,0,0,0-2.25,2.25v96.5a2.253,2.253,0,0,0,2.25,2.25H93.88a2.253,2.253,0,0,0,2.25-2.25V64a1.75,1.75,0,0,1,3.5,0v38.252A5.757,5.757,0,0,1,93.88,108H31.87v14.252a2.253,2.253,0,0,0,2.25,2.25h78.673a2.253,2.253,0,0,0,2.25-2.25ZM89.88,8H40a1.75,1.75,0,1,0,0,3.5H88.13V41.807H20.956V11.5h6.481a1.75,1.75,0,0,0,0-3.5H19.206a1.75,1.75,0,0,0-1.75,1.75V43.557a1.751,1.751,0,0,0,1.75,1.75H89.88a1.751,1.751,0,0,0,1.75-1.75V9.749A1.75,1.75,0,0,0,89.88,8ZM29.644,33.26l2.2-5.115,0-.012,4.073-9.47a1.75,1.75,0,0,1,3.215,0l4.072,9.47.005.012,2.2,5.115A1.75,1.75,0,0,1,42.2,34.643L40.447,30.57H34.61l-1.752,4.073a1.749,1.749,0,1,1-3.214-1.383Zm6.471-6.19h2.827l-1.414-3.286ZM51.479,35.7a1.75,1.75,0,0,1-1.75-1.75v-14.6a1.751,1.751,0,0,1,1.75-1.75h6.158a5.757,5.757,0,0,1,5.75,5.75v6.6a5.756,5.756,0,0,1-5.75,5.75Zm1.75-3.5h4.408a2.253,2.253,0,0,0,2.25-2.25v-6.6a2.253,2.253,0,0,0-2.25-2.25H53.229Zm15.992,0a1.75,1.75,0,0,0,0,3.5h8.614a1.749,1.749,0,0,0,1.75-1.75v-7.3a1.749,1.749,0,0,0-1.75-1.75H70.971V21.1h6.864a1.75,1.75,0,0,0,0-3.5H69.221a1.751,1.751,0,0,0-1.75,1.75v7.3a1.75,1.75,0,0,0,1.75,1.75h6.864v3.8ZM89.88,49.813H19.206a1.75,1.75,0,0,0,0,3.5H89.88a1.75,1.75,0,0,0,0-3.5Zm0,9.337H19.206a1.75,1.75,0,1,0,0,3.5H89.88a1.75,1.75,0,0,0,0-3.5Zm0,9.337H19.206a1.75,1.75,0,0,0,0,3.5H89.88a1.75,1.75,0,0,0,0-3.5Zm0,9.337H19.206a1.75,1.75,0,0,0,0,3.5H89.88a1.75,1.75,0,0,0,0-3.5Zm0,9.338H19.206a1.75,1.75,0,0,0,0,3.5H89.88a1.75,1.75,0,0,0,0-3.5Zm-6,9.337H25.211a1.75,1.75,0,0,0,0,3.5H83.875a1.75,1.75,0,0,0,0-3.5Z" fill="url(#a)"/></svg>
