<svg height="512" viewBox="0 0 128 128" width="512" xmlns="http://www.w3.org/2000/svg" xmlns:xlink="http://www.w3.org/1999/xlink"><linearGradient id="a" gradientUnits="userSpaceOnUse" x1="118.907" x2="9.096" y1="136.061" y2="26.25"><stop offset="0" stop-color="#f77c90"/><stop offset="1" stop-color="#8cc9fe"/></linearGradient><path d="m26.993 58.885v-33.808a1.75 1.75 0 0 1 1.75-1.75h10.214a1.75 1.75 0 0 1 0 3.5h-8.464v30.308h67.014v-30.308h-47.257a1.75 1.75 0 0 1 0-3.5h49.007a1.749 1.749 0 0 1 1.75 1.75v33.808a1.749 1.749 0 0 1 -1.75 1.75h-70.514a1.75 1.75 0 0 1 -1.75-1.75zm14.312-15.424 4.073-9.47a1.75 1.75 0 0 1 3.215 0l4.071 9.467.007.017 2.2 5.113a1.75 1.75 0 0 1 -3.215 1.383l-1.756-4.071h-5.833l-1.752 4.073a1.749 1.749 0 1 1 -3.215-1.385l2.2-5.115zm4.267-1.061h2.828l-1.413-3.286zm15.363 8.631a1.75 1.75 0 0 1 -1.75-1.75v-14.6a1.75 1.75 0 0 1 1.75-1.75h6.159a5.756 5.756 0 0 1 5.75 5.75v6.6a5.756 5.756 0 0 1 -5.75 5.75zm1.75-3.5h4.409a2.253 2.253 0 0 0 2.25-2.25v-6.6a2.253 2.253 0 0 0 -2.25-2.25h-4.409zm15.993 0a1.75 1.75 0 0 0 0 3.5h8.614a1.749 1.749 0 0 0 1.75-1.75v-7.3a1.75 1.75 0 0 0 -1.75-1.75h-6.864v-3.8h6.864a1.75 1.75 0 0 0 0-3.5h-8.614a1.749 1.749 0 0 0 -1.75 1.75v7.3a1.749 1.749 0 0 0 1.75 1.75h6.864v3.8zm19.76 51.369a1.75 1.75 0 0 0 -2.339 2.6l3.109 2.794a1.75 1.75 0 1 0 2.34-2.6zm27.812 29.1h-124.5a1.773 1.773 0 0 1 -1.75-1.75v-73.243a1.889 1.889 0 0 1 .638-1.351l18.356-15.114v-19.465a1.749 1.749 0 0 1 1.75-1.75h24.015l18.129-14.927a1.747 1.747 0 0 1 2.224 0l18.129 14.927h24.016a1.749 1.749 0 0 1 1.75 1.75v19.465l18.355 15.114a1.893 1.893 0 0 1 .638 1.351v73.243a1.869 1.869 0 0 1 -.193.784 1.753 1.753 0 0 1 -1.557.966zm-1.75-5.675v-66.112l-42.881 27.576 7.847 7.053a1.75 1.75 0 1 1 -2.34 2.6l-8.56-7.693-13.619 8.762a1.8 1.8 0 0 1 -1.894 0l-13.619-8.759-43.118 38.748h115.368l-13.5-12.135a1.75 1.75 0 1 1 2.339-2.6zm-121 0 42.881-38.536-42.881-27.576zm105.507-81.25v20.94l14.278-9.182zm-58.742-25.748h27.471l-13.736-11.31zm-27.771 48.939 41.506 26.692 41.507-26.692v-45.439h-83.013zm-3.5-23.191-14.279 11.758 14.279 9.182zm64.514 25.206h-39.016a1.75 1.75 0 1 0 0 3.5h39.016a1.75 1.75 0 0 0 0-3.5zm-12.414 9.188h-14.188a1.75 1.75 0 0 0 0 3.5h14.188a1.75 1.75 0 0 0 0-3.5z" fill="url(#a)"/></svg>
