<svg height="512" viewBox="0 0 128 128" width="512" xmlns="http://www.w3.org/2000/svg" xmlns:xlink="http://www.w3.org/1999/xlink"><linearGradient id="a" gradientUnits="userSpaceOnUse" x1="125.885" x2="7.21" y1="123.337" y2="4.662"><stop offset="0" stop-color="#f77c90"/><stop offset="1" stop-color="#8cc9fe"/></linearGradient><path d="m40.5 20.247a1.75 1.75 0 0 1 -3.5 0 16.749 16.749 0 1 0 -4.285 11.189 1.75 1.75 0 0 1 2.6 2.34 20.25 20.25 0 1 1 5.185-13.529zm0 87.5a20.25 20.25 0 1 1 -20.25-20.247 20.273 20.273 0 0 1 20.25 20.251zm-3.5 0a16.75 16.75 0 1 0 -16.75 16.753 16.769 16.769 0 0 0 16.75-16.749zm-6.506 8.177a18.136 18.136 0 0 0 -20.488 0 1.75 1.75 0 0 0 1.988 2.881 14.615 14.615 0 0 1 16.512 0 1.75 1.75 0 0 0 1.988-2.881zm1.625-13.245c0 3.472-2.463 6.3-5.49 6.3s-5.489-2.825-5.489-6.3 2.462-6.3 5.489-6.3 5.49 2.831 5.49 6.304zm-3.5 0c0-1.517-.912-2.8-1.99-2.8s-1.989 1.281-1.989 2.8.911 2.8 1.989 2.8 1.99-1.279 1.99-2.796zm-20.238 0c0-3.473 2.463-6.3 5.49-6.3s5.489 2.825 5.489 6.3-2.463 6.3-5.489 6.3-5.49-2.824-5.49-6.296zm3.5 0c0 1.516.911 2.8 1.99 2.8s1.989-1.281 1.989-2.8-.911-2.8-1.989-2.8-1.99 1.287-1.99 2.804zm28.619-38.879a20.25 20.25 0 1 1 -20.25-20.25 20.273 20.273 0 0 1 20.25 20.25zm-3.5 0a16.75 16.75 0 1 0 -16.75 16.75 16.768 16.768 0 0 0 16.75-16.75zm-4.881-5.07c0 3.473-2.463 6.3-5.49 6.3s-5.489-2.825-5.489-6.3 2.462-6.3 5.489-6.3 5.49 2.831 5.49 6.302zm-3.5 0c0-1.515-.912-2.8-1.99-2.8s-1.989 1.282-1.989 2.8.911 2.8 1.989 2.8 1.99-1.281 1.99-2.798zm-20.238 0c0-3.471 2.463-6.3 5.49-6.3s5.489 2.826 5.489 6.3-2.463 6.3-5.489 6.3-5.49-2.825-5.49-6.298zm3.5 0c0 1.517.911 2.8 1.99 2.8s1.989-1.281 1.989-2.8-.911-2.8-1.989-2.8-1.99 1.287-1.99 2.802zm-1.874-30.306a18.138 18.138 0 0 0 20.486 0 1.75 1.75 0 1 0 -1.986-2.881 14.629 14.629 0 0 1 -16.514 0 1.75 1.75 0 1 0 -1.986 2.881zm22.112-13.245c0 3.471-2.463 6.3-5.49 6.3s-5.489-2.826-5.489-6.3 2.462-6.3 5.489-6.3 5.49 2.827 5.49 6.3zm-3.5 0c0-1.517-.912-2.8-1.99-2.8s-1.989 1.281-1.989 2.8.911 2.8 1.989 2.8 1.99-1.285 1.99-2.8zm-20.238 0c0-3.473 2.463-6.3 5.49-6.3s5.489 2.825 5.489 6.3-2.463 6.3-5.489 6.3-5.49-2.829-5.49-6.3zm3.5 0c0 1.515.911 2.8 1.99 2.8s1.989-1.282 1.989-2.8-.911-2.8-1.989-2.8-1.99 1.283-1.99 2.8zm17.306 54.321h-17.875a1.75 1.75 0 1 0 0 3.5h17.875a1.75 1.75 0 0 0 0-3.5zm98.813-62v25.1a1.749 1.749 0 0 1 -1.75 1.75h-76a1.75 1.75 0 0 1 -1.75-1.75v-25.1a1.75 1.75 0 0 1 1.75-1.75h76a1.749 1.749 0 0 1 1.75 1.75zm-3.5 1.75h-72.5v21.6h72.5zm3.5 42.2v25.1a1.749 1.749 0 0 1 -1.75 1.75h-76a1.75 1.75 0 0 1 -1.75-1.75v-25.1a1.75 1.75 0 0 1 1.75-1.75h76a1.749 1.749 0 0 1 1.75 1.749zm-3.5 1.75h-72.5v21.6h72.5zm1.75 40.447h-15.438a1.75 1.75 0 0 0 0 3.5h13.688v21.6h-72.5v-21.6h28.172a1.75 1.75 0 0 0 0-3.5h-29.922a1.75 1.75 0 0 0 -1.75 1.753v25.1a1.75 1.75 0 0 0 1.75 1.75h76a1.749 1.749 0 0 0 1.75-1.75v-25.1a1.749 1.749 0 0 0 -1.75-1.754zm-28 3.5a1.75 1.75 0 0 0 0-3.5h-5.516a1.75 1.75 0 0 0 0 3.5zm-40-79.893h60a1.75 1.75 0 0 0 0-3.5h-60a1.75 1.75 0 0 0 0 3.5zm0 9.1h43.844a1.75 1.75 0 0 0 0-3.5h-43.844a1.75 1.75 0 0 0 0 3.5zm0 34.842h60a1.75 1.75 0 0 0 0-3.5h-60a1.75 1.75 0 0 0 0 3.5zm0 9.1h43.844a1.75 1.75 0 0 0 0-3.5h-43.844a1.75 1.75 0 0 0 0 3.5zm-1.75 33.094a1.751 1.751 0 0 0 1.75 1.75h60a1.75 1.75 0 0 0 0-3.5h-60a1.75 1.75 0 0 0 -1.75 1.75zm1.75 7.351a1.75 1.75 0 1 0 0 3.5h43.844a1.75 1.75 0 0 0 0-3.5z" fill="url(#a)"/></svg>
