<svg height="512" viewBox="0 0 128 128" width="512" xmlns="http://www.w3.org/2000/svg" xmlns:xlink="http://www.w3.org/1999/xlink"><linearGradient id="a" gradientUnits="userSpaceOnUse" x1="98.763" x2="24.067" y1="96.328" y2="21.633"><stop offset="0" stop-color="#f77c90"/><stop offset="1" stop-color="#8cc9fe"/></linearGradient><path d="m115.922 33.707a1.75 1.75 0 0 0 -1.516-.876h-25.284a18.153 18.153 0 1 0 -24.428-26.531 1.75 1.75 0 0 0 2.649 2.287 14.665 14.665 0 1 1 -3.562 9.581 1.75 1.75 0 0 0 -3.5 0 18.133 18.133 0 0 0 7.491 14.665h-7.392a14.543 14.543 0 0 0 -28.877 0h-17.909a1.751 1.751 0 0 0 -1.515 2.627l33.805 58.429v32.361a1.75 1.75 0 0 0 2.438 1.609l32.733-14a1.751 1.751 0 0 0 1.061-1.609v-18.361l33.805-58.431a1.752 1.752 0 0 0 .001-1.751zm-69.981-10.18a11.071 11.071 0 0 1 10.916 9.3h-21.831a11.07 11.07 0 0 1 10.915-9.3zm32.911 69.015a1.745 1.745 0 0 0 -.236.877v17.681l-29.232 12.5v-30.181a1.745 1.745 0 0 0 -.236-.877l-32.52-56.211h94.744zm1.11-10.9-1 1.735a1.75 1.75 0 1 1 -3.029-1.753l1-1.735a1.75 1.75 0 0 1 3.029 1.753zm-52.5-40.806h73.07a1.751 1.751 0 0 1 1.515 2.627l-17.011 29.4a1.75 1.75 0 0 1 -3.029-1.753l15.493-26.779h-67l26.648 46.069a1.744 1.744 0 0 1 .236.876v20.2l13.232-5.66v-14.545a1.75 1.75 0 0 1 3.5 0v15.7a1.752 1.752 0 0 1 -1.061 1.609l-16.733 7.156a1.749 1.749 0 0 1 -2.438-1.609v-22.386l-27.934-48.283a1.751 1.751 0 0 1 1.515-2.627z" fill="url(#a)"/></svg>
