<?xml version="1.0" encoding="UTF-8"?>
<svg xmlns="http://www.w3.org/2000/svg" xmlns:xlink="http://www.w3.org/1999/xlink" width="512" height="512" viewBox="0 0 128 128"><defs><linearGradient id="a" x1="127.486" y1="127.483" x2="0.514" y2="0.511" gradientUnits="userSpaceOnUse"><stop offset="0" stop-color="#f77c90"/><stop offset="1" stop-color="#8cc9fe"/></linearGradient></defs><path d="M13.747,23.246A1.749,1.749,0,0,1,15.5,25v5A1.75,1.75,0,0,1,12,30V25A1.749,1.749,0,0,1,13.747,23.246Zm-12,26.5h12A1.749,1.749,0,0,0,15.5,48V41.25a1.75,1.75,0,0,0-3.5,0v5H3.5V3.5H46.247V12h-32.5a1.75,1.75,0,0,0,0,3.5H48a1.749,1.749,0,0,0,1.75-1.75v-12A1.749,1.749,0,0,0,48,0H1.75A1.749,1.749,0,0,0,0,1.75V48A1.749,1.749,0,0,0,1.75,49.746ZM128,1.75V48a1.749,1.749,0,0,1-1.75,1.75h-12A1.749,1.749,0,0,1,112.5,48V15.5H80a1.749,1.749,0,0,1-1.75-1.75v-12A1.749,1.749,0,0,1,80,0H126.25A1.749,1.749,0,0,1,128,1.75ZM124.5,3.5H81.753V12h32.5a1.749,1.749,0,0,1,1.75,1.75v32.5h8.5ZM49.747,114.248v12a1.749,1.749,0,0,1-1.75,1.75H1.75A1.749,1.749,0,0,1,0,126.244V80a1.749,1.749,0,0,1,1.75-1.75h12A1.749,1.749,0,0,1,15.5,80v32.5H48A1.749,1.749,0,0,1,49.747,114.248Zm-3.5,1.75h-32.5a1.749,1.749,0,0,1-1.75-1.75v-32.5H3.5v42.746H46.247ZM128,80v46.246a1.749,1.749,0,0,1-1.75,1.75H80a1.749,1.749,0,0,1-1.75-1.75v-12A1.749,1.749,0,0,1,80,112.5h32.5V80a1.749,1.749,0,0,1,1.75-1.75h12A1.749,1.749,0,0,1,128,80Zm-3.5,1.75H116v32.5a1.749,1.749,0,0,1-1.75,1.75h-32.5v8.5H124.5ZM52.669,65.488l2.2,5.119a1.75,1.75,0,1,1-3.215,1.383L49.9,67.918H44.067L42.315,71.99A1.749,1.749,0,1,1,39.1,70.607L41.3,65.5l.008-.019,4.071-9.467a1.75,1.75,0,0,1,3.215,0l4.074,9.475Zm-4.27-1.07-1.414-3.287-1.413,3.287Zm18.695-9.467a5.756,5.756,0,0,1,5.75,5.75v6.6a5.756,5.756,0,0,1-5.75,5.75H60.935a1.75,1.75,0,0,1-1.75-1.75V56.7a1.75,1.75,0,0,1,1.75-1.75Zm0,3.5H62.685v11.1h4.409a2.253,2.253,0,0,0,2.25-2.25V60.7A2.253,2.253,0,0,0,67.094,58.451Zm20.2,0a1.75,1.75,0,0,0,0-3.5H78.678a1.749,1.749,0,0,0-1.75,1.75V64a1.749,1.749,0,0,0,1.75,1.75h6.864v3.8H78.678a1.75,1.75,0,0,0,0,3.5h8.614a1.749,1.749,0,0,0,1.75-1.75V64a1.749,1.749,0,0,0-1.75-1.75H80.428v-3.8Zm10.594,11.3h12.736a1.749,1.749,0,0,0,1.75-1.75V60a1.749,1.749,0,0,0-1.75-1.75H96.372a1.75,1.75,0,0,0,0,3.5h12.5v4.5h-12.5a1.749,1.749,0,0,0-1.737,1.537A30.765,30.765,0,0,1,67.787,94.632a1.749,1.749,0,0,0-1.537,1.737v12.5h-4.5v-12.5a1.749,1.749,0,0,0-1.537-1.737A30.765,30.765,0,0,1,33.365,67.784a1.749,1.749,0,0,0-1.737-1.537h-12.5v-4.5h12.5a1.749,1.749,0,0,0,1.737-1.537A30.765,30.765,0,0,1,60.213,33.362a1.749,1.749,0,0,0,1.537-1.737v-12.5h4.5v12.5a1.749,1.749,0,0,0,1.537,1.737A30.875,30.875,0,0,1,91.3,49.578a1.75,1.75,0,1,0,3.094-1.637A34.389,34.389,0,0,0,69.75,30.111V17.375A1.749,1.749,0,0,0,68,15.625H60a1.749,1.749,0,0,0-1.75,1.75V30.111A34.248,34.248,0,0,0,30.114,58.247H17.378A1.749,1.749,0,0,0,15.628,60v8a1.749,1.749,0,0,0,1.75,1.75H30.114A34.248,34.248,0,0,0,58.25,97.883v12.736a1.749,1.749,0,0,0,1.75,1.75h8a1.749,1.749,0,0,0,1.75-1.75V97.883A34.249,34.249,0,0,0,97.886,69.747Z" fill="url(#a)"/></svg>
