<svg height="512" viewBox="0 0 128 128" width="512" xmlns="http://www.w3.org/2000/svg" xmlns:xlink="http://www.w3.org/1999/xlink"><linearGradient id="a" gradientUnits="userSpaceOnUse" x1="115.028" x2="12.972" y1="105.028" y2="2.972"><stop offset="0" stop-color="#f77c90"/><stop offset="1" stop-color="#8cc9fe"/></linearGradient><path d="m117.25 9.639h-106.5a10.762 10.762 0 0 0 -10.75 10.75v67.222a10.762 10.762 0 0 0 10.75 10.75h31.335l20.715 19.524a1.751 1.751 0 0 0 2.4 0l20.715-19.524h31.335a10.762 10.762 0 0 0 10.75-10.75v-67.222a10.762 10.762 0 0 0 -10.75-10.75zm7.25 77.972a7.258 7.258 0 0 1 -7.25 7.25h-32.029a1.752 1.752 0 0 0 -1.2.477l-20.021 18.868-20.021-18.868a1.747 1.747 0 0 0 -1.2-.477h-32.029a7.258 7.258 0 0 1 -7.25-7.25v-67.222a7.258 7.258 0 0 1 7.25-7.25h106.5a7.258 7.258 0 0 1 7.25 7.25zm-4.5-67.222v67.222a2.752 2.752 0 0 1 -2.75 2.75h-34.511l-17.539 16.53a1.748 1.748 0 0 1 -2.4 0l-17.539-16.53h-34.511a2.752 2.752 0 0 1 -2.75-2.75v-67.222a2.752 2.752 0 0 1 2.75-2.75h11.57a1.75 1.75 0 0 1 0 3.5h-10.82v65.722h34.455a1.749 1.749 0 0 1 1.2.477l16.845 15.875 16.845-15.875a1.749 1.749 0 0 1 1.2-.477h34.455v-65.722h-63.75a1.75 1.75 0 0 1 0-3.5h64.5a2.752 2.752 0 0 1 2.75 2.75zm-86.43-1a1.75 1.75 0 0 1 1.75-1.75h4.43a1.75 1.75 0 0 1 0 3.5h-4.43a1.75 1.75 0 0 1 -1.75-1.75zm-10.986 58.328a4.538 4.538 0 0 0 4.533 4.534h33.44a4.538 4.538 0 0 0 4.533-4.534v-10.655a10.111 10.111 0 0 0 -10.1-10.1h-22.306a10.111 10.111 0 0 0 -10.1 10.1zm3.5-10.655a6.608 6.608 0 0 1 6.6-6.6h22.306a6.608 6.608 0 0 1 6.6 6.6v10.655a1.035 1.035 0 0 1 -1.033 1.034h-33.44a1.035 1.035 0 0 1 -1.033-1.034zm17.753-14.91a12.2 12.2 0 1 0 -12.2-12.2 12.215 12.215 0 0 0 12.2 12.2zm0-20.9a8.7 8.7 0 1 1 -8.7 8.7 8.71 8.71 0 0 1 8.7-8.701zm48.391 28.86v-27.962h-6.728l-8.883 13.226 3.736 2.509 4.172-6.215a1.75 1.75 0 0 1 3.2.976v29.854a1.749 1.749 0 0 1 -1.75 1.75h-7.934v4.5h23.875v-4.5h-7.938a1.75 1.75 0 0 1 0-3.5h9.688a1.75 1.75 0 0 1 1.75 1.75v8a1.749 1.749 0 0 1 -1.75 1.75h-27.375a1.749 1.749 0 0 1 -1.75-1.75v-8a1.75 1.75 0 0 1 1.75-1.75h7.937v-22.358l-1.944 2.9a1.75 1.75 0 0 1 -2.429.478l-6.642-4.459a1.753 1.753 0 0 1 -.478-2.429l10.377-15.458a1.75 1.75 0 0 1 1.453-.774h9.413a1.749 1.749 0 0 1 1.75 1.75v29.711a1.75 1.75 0 1 1 -3.5 0z" fill="url(#a)"/></svg>
