<?xml version="1.0" encoding="UTF-8"?>
<svg xmlns="http://www.w3.org/2000/svg" xmlns:xlink="http://www.w3.org/1999/xlink" width="512" height="512" viewBox="0 0 128 128"><defs><linearGradient id="a" x1="116.823" y1="115.348" x2="11.177" y2="9.702" gradientUnits="userSpaceOnUse"><stop offset="0" stop-color="#f77c90"/><stop offset="1" stop-color="#8cc9fe"/></linearGradient></defs><path d="M92.75,46.073A1.75,1.75,0,0,1,91,47.823H87.625a1.75,1.75,0,0,1,0-3.5H91A1.749,1.749,0,0,1,92.75,46.073Zm26.062-10.267v5.267a6.758,6.758,0,0,1-6.75,6.75h-4.52v74.428a5.757,5.757,0,0,1-5.75,5.75H26.208a5.757,5.757,0,0,1-5.75-5.75V47.823H15.937a6.758,6.758,0,0,1-6.75-6.75V35.806a6.758,6.758,0,0,1,6.75-6.75H29.794a21.745,21.745,0,0,1-9.94-18.25V1.749A1.751,1.751,0,0,1,21.6,0H45A21.69,21.69,0,0,1,64,11.166,21.69,21.69,0,0,1,83,0h23.4a1.75,1.75,0,0,1,1.75,1.75v9.057a21.744,21.744,0,0,1-9.939,18.25h13.856A6.758,6.758,0,0,1,118.812,35.806ZM41.6,29.056H86.4a18.27,18.27,0,0,0,18.25-18.25V3.5H83a18.2,18.2,0,0,0-17.336,12.57,1.75,1.75,0,0,1-3.326,0A18.2,18.2,0,0,0,45,3.5H23.354v7.307A18.271,18.271,0,0,0,41.6,29.056ZM23.958,47.823v28.3H53.963v-28.3Zm0,44.876H53.963V79.624H23.958Zm2.25,31.8H53.963V96.2H23.958v26.052A2.253,2.253,0,0,0,26.208,124.5Zm44.329,0V47.823H57.463V124.5Zm33.5-44.877h-30V92.7h30Zm0,42.627V96.2h-30v28.3h27.755A2.253,2.253,0,0,0,104.042,122.251Zm11.27-86.445a3.254,3.254,0,0,0-3.25-3.25H15.937a3.254,3.254,0,0,0-3.25,3.25v5.267a3.254,3.254,0,0,0,3.25,3.25H78a1.75,1.75,0,0,1,0,3.5H74.037v28.3h30v-28.3h-3.417a1.75,1.75,0,0,1,0-3.5h11.437a3.254,3.254,0,0,0,3.25-3.25ZM86.4,24.556H71a1.749,1.749,0,0,1-1.75-1.75V21.749A13.766,13.766,0,0,1,83,8H98.4a1.75,1.75,0,0,1,1.75,1.75v1.057A13.765,13.765,0,0,1,86.4,24.556Zm-13.623-3.5H86.4A10.262,10.262,0,0,0,96.622,11.5H83A10.264,10.264,0,0,0,72.772,21.056Zm-18.8-7.46a1.748,1.748,0,0,0-.469,2.429,10.167,10.167,0,0,1,1.728,5.031H41.6A10.262,10.262,0,0,1,31.378,11.5H45A1.75,1.75,0,0,0,45,8H29.6a1.751,1.751,0,0,0-1.75,1.75v1.057A13.765,13.765,0,0,0,41.6,24.556H57a1.749,1.749,0,0,0,1.75-1.75V21.749A13.658,13.658,0,0,0,56.4,14.065,1.747,1.747,0,0,0,53.968,13.6Z" fill="url(#a)"/></svg>
