<?xml version="1.0" encoding="UTF-8"?>
<svg xmlns="http://www.w3.org/2000/svg" xmlns:xlink="http://www.w3.org/1999/xlink" width="512" height="512" viewBox="0 0 128 128"><defs><linearGradient id="a" x1="109.226" y1="109.255" x2="18.763" y2="18.792" gradientUnits="userSpaceOnUse"><stop offset="0" stop-color="#f77c90"/><stop offset="1" stop-color="#8cc9fe"/></linearGradient></defs><path d="M69.75,80.906A1.75,1.75,0,0,1,68,82.656H65.491a1.75,1.75,0,1,1,0-3.5H68A1.751,1.751,0,0,1,69.75,80.906ZM54.87,70.61a1.75,1.75,0,0,1-3.216,1.383L49.9,67.921H44.067l-1.752,4.072A1.749,1.749,0,1,1,39.1,70.61l2.2-5.116,0-.009,4.073-9.472a1.75,1.75,0,0,1,3.215,0l4.074,9.474,0,.006ZM48.4,64.421l-1.414-3.287-1.413,3.287Zm18.695,8.631H60.935a1.75,1.75,0,0,1-1.75-1.75V56.7a1.75,1.75,0,0,1,1.75-1.75h6.159a5.756,5.756,0,0,1,5.75,5.75v6.6A5.756,5.756,0,0,1,67.094,73.052Zm-4.409-3.5h4.409a2.253,2.253,0,0,0,2.25-2.25V60.7a2.253,2.253,0,0,0-2.25-2.25H62.685Zm15.993,0a1.75,1.75,0,0,0,0,3.5h8.614a1.75,1.75,0,0,0,1.75-1.75V64a1.75,1.75,0,0,0-1.75-1.75H80.428v-3.8h6.864a1.75,1.75,0,0,0,0-3.5H78.678a1.75,1.75,0,0,0-1.75,1.75V64a1.75,1.75,0,0,0,1.75,1.75h6.864v3.8ZM64,128A64,64,0,0,1,64,0c35.539-.183,64.223,29.585,64,64a64.043,64.043,0,0,1-64,64ZM26.065,111.082l4.155-4.666V96.389a1.75,1.75,0,0,1,1.75-1.75H45.389l1.1-11.983H29.717a1.75,1.75,0,0,1-1.75-1.75V47.1a1.75,1.75,0,0,1,1.75-1.75H41.893l-10.8-6.258a1.75,1.75,0,0,1-.135-2.942l9.276-6.583L26.2,16.814a60.4,60.4,0,0,0-.133,94.268ZM64,124.5a60.719,60.719,0,0,0,6.914-.407l2.331-17.949a1.75,1.75,0,0,1,1.533-1.513l15.349-1.78L94.735,91A1.753,1.753,0,0,1,96.161,89.9L114.22,87.76a1.76,1.76,0,0,1,1.8,1.014l1.521,3.351a60.429,60.429,0,0,0,5.038-43.275H111.812a1.755,1.755,0,0,1-1.28-.557L102.5,39.678,78.239,33.391A1.75,1.75,0,0,1,79.117,30l24.757,6.415a1.758,1.758,0,0,1,.842.5l7.857,8.432h8.972A60.6,60.6,0,0,0,65.75,3.544V15.656L73.642,19.7a1.75,1.75,0,0,1-1.6,3.116L63.2,18.283a1.751,1.751,0,0,1-.952-1.557V3.544A60.135,60.135,0,0,0,29.041,14.669L44.2,28.44a1.75,1.75,0,0,1-.164,2.722L35.2,37.429,48.876,45.35H98.283a1.75,1.75,0,0,1,1.75,1.75V80.906a1.75,1.75,0,0,1-1.75,1.75H76.928a1.75,1.75,0,0,1,0-3.5H96.533V48.85H31.467V79.156h25.1a1.75,1.75,0,0,1,0,3.5H50L48.728,96.549a1.751,1.751,0,0,1-1.743,1.59H33.72v8.943a1.747,1.747,0,0,1-.443,1.164L28.863,113.2A60.155,60.155,0,0,0,64,124.5Zm51.4-28.632-2.034-4.481L97.616,93.251,93.007,105.1a1.748,1.748,0,0,1-1.429,1.1L76.54,107.95l-2.029,15.617A60.63,60.63,0,0,0,115.4,95.868Z" fill="url(#a)"/></svg>
