<svg height="512" viewBox="0 0 128 128" width="512" xmlns="http://www.w3.org/2000/svg" xmlns:xlink="http://www.w3.org/1999/xlink"><linearGradient id="a" gradientUnits="userSpaceOnUse" x1="118.163" x2="27.294" y1="133.389" y2="42.521"><stop offset="0" stop-color="#f77c90"/><stop offset="1" stop-color="#8cc9fe"/></linearGradient><path d="m126.25 111.626h-2.609v-75.921a1.751 1.751 0 0 0 -1.75-1.75h-15.782a1.751 1.751 0 0 0 -1.75 1.75v75.921h-5.718v-32.085a1.75 1.75 0 0 0 -3.5 0v32.085h-12.282v-64.171h12.282v6.608a1.75 1.75 0 0 0 3.5 0v-8.358a1.751 1.751 0 0 0 -1.75-1.75h-15.782a1.751 1.751 0 0 0 -1.75 1.75v65.921h-5.718v-55.921a1.751 1.751 0 0 0 -1.75-1.75h-15.782a1.751 1.751 0 0 0 -1.75 1.75v55.921h-5.718v-35.921a1.751 1.751 0 0 0 -1.75-1.75h-15.782a1.751 1.751 0 0 0 -1.75 1.75v35.921h-5.718v-15.921a1.751 1.751 0 0 0 -1.75-1.75h-15.782a1.751 1.751 0 0 0 -1.75 1.75v15.921h-2.609a1.751 1.751 0 0 0 -1.75 1.75v9.451a1.751 1.751 0 0 0 1.75 1.75h124.5a1.751 1.751 0 0 0 1.75-1.75v-9.451a1.751 1.751 0 0 0 -1.75-1.75zm-18.391-74.171h12.282v74.171h-12.282zm-50 20h12.282v54.171h-12.282zm-25 20h12.282v34.171h-12.282zm-25 20h12.282v14.171h-12.282zm116.641 23.622h-121v-5.951h121zm-25.859-57.022v5.493a1.75 1.75 0 0 1 -3.5 0v-5.493a1.75 1.75 0 1 1 3.5 0zm-83.654-7.182a1.75 1.75 0 0 1 .43-2.438l59.82-41.886-2.837-4.049a1.75 1.75 0 0 1 1.25-2.744l21.963-2.323a1.75 1.75 0 0 1 1.756 2.508l-9.694 19.842a1.751 1.751 0 0 1 -3.006.236l-2.835-4.05-42.508 29.764a1.75 1.75 0 0 1 -2.008-2.867l43.942-30.766a1.749 1.749 0 0 1 2.437.43l2.136 3.051 7-14.333-15.861 1.676 2.136 3.051a1.75 1.75 0 0 1 -.429 2.437l-59.821 41.888 2.582 3.686 6.844-4.793a1.751 1.751 0 1 1 2.008 2.868l-8.278 5.8a1.752 1.752 0 0 1 -2.438-.43z" fill="url(#a)"/></svg>