<?xml version="1.0" encoding="UTF-8"?>
<svg xmlns="http://www.w3.org/2000/svg" xmlns:xlink="http://www.w3.org/1999/xlink" width="512" height="512" viewBox="0 0 128 128"><defs><linearGradient id="a" x1="115.146" y1="115.144" x2="12.854" y2="12.853" gradientUnits="userSpaceOnUse"><stop offset="0" stop-color="#f77c90"/><stop offset="1" stop-color="#8cc9fe"/></linearGradient></defs><path d="M42.528,44.668a1.75,1.75,0,1,1,3.309-1.138l.869,2.526a1.75,1.75,0,1,1-3.31,1.138ZM128,28.085V99.912a5.756,5.756,0,0,1-5.75,5.75H74.784v10.045h6.493a5.757,5.757,0,0,1,5.75,5.75v4.791a1.749,1.749,0,0,1-1.75,1.75H42.723a1.749,1.749,0,0,1-1.75-1.75v-4.791a5.757,5.757,0,0,1,5.75-5.75h6.492V105.662H5.75A5.757,5.757,0,0,1,0,99.912V28.085a5.757,5.757,0,0,1,5.75-5.75H41.192L57.4.7A1.75,1.75,0,0,1,58.8,0H69.2a1.75,1.75,0,0,1,1.4.7L86.808,22.335H122.25A5.757,5.757,0,0,1,128,28.085Zm-67.131,6.44A3.131,3.131,0,1,0,64,31.4,3.135,3.135,0,0,0,60.869,34.525Zm20.408,84.682H46.723a2.252,2.252,0,0,0-2.25,2.25V124.5H83.527v-3.041A2.252,2.252,0,0,0,81.277,119.207Zm-9.993-13.545H56.715v10.045H71.284ZM124.5,28.085a2.253,2.253,0,0,0-2.25-2.25H89.43L90.6,27.4a1.749,1.749,0,0,1,.254,1.618L90.4,30.335H118.25a1.75,1.75,0,0,1,1.75,1.75V95.912a1.75,1.75,0,0,1-1.75,1.75H107.5a1.75,1.75,0,0,1,0-3.5h9V33.835H89.2L81.529,56.14a6.377,6.377,0,0,1,.979,11.635l8.045,9.842A1.75,1.75,0,0,1,89.2,80.474H38.8a1.75,1.75,0,0,1-1.355-2.857l8.044-9.842a6.377,6.377,0,0,1,.98-11.635l-.43-1.251a1.75,1.75,0,0,1,3.31-1.137l.7,2.035h27.9l9.293-27.035L68.322,3.5H65.75V28.137a6.631,6.631,0,1,1-3.5,0V3.5H59.677L40.758,28.752l2.434,7.083a1.75,1.75,0,1,1-3.309,1.138L38.8,33.835H11.5V94.162h85a1.75,1.75,0,0,1,0,3.5H9.75A1.751,1.751,0,0,1,8,95.912V32.085a1.751,1.751,0,0,1,1.75-1.75H37.6l-.454-1.322A1.749,1.749,0,0,1,37.4,27.4l1.169-1.56H5.75a2.252,2.252,0,0,0-2.25,2.25V99.912a2.252,2.252,0,0,0,2.25,2.25h116.5a2.253,2.253,0,0,0,2.25-2.25ZM42.492,76.974H85.508l-6.883-8.419H49.374Zm39.847-14.8a2.888,2.888,0,0,0-2.884-2.884H48.544a2.884,2.884,0,0,0,0,5.768H79.455A2.888,2.888,0,0,0,82.339,62.171Z" fill="url(#a)"/></svg>
