<svg height="512" viewBox="0 0 128 128" width="512" xmlns="http://www.w3.org/2000/svg" xmlns:xlink="http://www.w3.org/1999/xlink"><linearGradient id="a" gradientUnits="userSpaceOnUse" x1="118.539" x2="9.461" y1="118.539" y2="9.461"><stop offset="0" stop-color="#f77c90"/><stop offset="1" stop-color="#8cc9fe"/></linearGradient><path d="m122.25 15.55h-10.625a1.75 1.75 0 0 0 0 3.5h10.625a2.253 2.253 0 0 1 2.25 2.25v17.89h-121v-17.89a2.253 2.253 0 0 1 2.25-2.25h94.375a1.75 1.75 0 0 0 0-3.5h-94.375a5.756 5.756 0 0 0 -5.75 5.75v85.4a5.756 5.756 0 0 0 5.75 5.75h116.5a5.756 5.756 0 0 0 5.75-5.75v-85.4a5.756 5.756 0 0 0 -5.75-5.75zm2.25 91.15a2.253 2.253 0 0 1 -2.25 2.25h-116.5a2.253 2.253 0 0 1 -2.25-2.25v-64.01h121zm-115.583-77.58a6.75 6.75 0 1 0 6.75-6.75 6.758 6.758 0 0 0 -6.75 6.75zm10 0a3.25 3.25 0 1 1 -3.25-3.25 3.254 3.254 0 0 1 3.25 3.25zm6 0a6.75 6.75 0 1 0 6.75-6.75 6.758 6.758 0 0 0 -6.75 6.75zm10 0a3.25 3.25 0 1 1 -3.25-3.25 3.254 3.254 0 0 1 3.25 3.25zm6 0a6.75 6.75 0 1 0 6.75-6.75 6.758 6.758 0 0 0 -6.75 6.75zm10 0a3.25 3.25 0 1 1 -3.25-3.25 3.254 3.254 0 0 1 3.25 3.25zm-10.478 56.291-2.288 5.32a1.75 1.75 0 1 0 3.215 1.383l1.841-4.281h6.17l1.841 4.281a1.75 1.75 0 0 0 3.215-1.383l-2.292-5.331-4.241-9.86a1.749 1.749 0 0 0 -3.214 0l-4.238 9.852zm5.853-4.75 1.579 3.672h-3.158zm12.768 10.762a1.751 1.751 0 0 0 1.75 1.75h6.41a5.92 5.92 0 0 0 5.913-5.913v-6.866a5.92 5.92 0 0 0 -5.913-5.913h-6.41a1.751 1.751 0 0 0 -1.75 1.75zm3.5-13.442h4.66a2.416 2.416 0 0 1 2.413 2.413v6.866a2.416 2.416 0 0 1 -2.413 2.413h-4.66zm23.931 11.692v-4.1h-7.215a1.751 1.751 0 0 1 -1.75-1.75v-7.6a1.751 1.751 0 0 1 1.75-1.75h8.965a1.75 1.75 0 0 1 0 3.5h-7.215v4.1h7.215a1.749 1.749 0 0 1 1.75 1.75v7.6a1.75 1.75 0 0 1 -1.75 1.75h-8.965a1.75 1.75 0 0 1 0-3.5zm-55.4 14.777h65.815a1.749 1.749 0 0 0 1.75-1.75v-53.76a1.75 1.75 0 0 0 -1.75-1.75h-65.812a1.75 1.75 0 0 0 -1.75 1.75v53.76a1.749 1.749 0 0 0 1.75 1.75zm64.065-40.981h-12.778v-12.779h12.778zm-62.312-12.779h46.034v12.779h-7.5a1.75 1.75 0 0 0 0 3.5h23.778v33.981h-62.312v-33.981h6.031a1.75 1.75 0 1 0 0-3.5h-6.031zm18.164 14.529a1.749 1.749 0 0 1 1.75-1.75h4.742a1.75 1.75 0 1 1 0 3.5h-4.742a1.75 1.75 0 0 1 -1.75-1.75zm34.776-7.631.508-.508-.508-.509a1.75 1.75 0 0 1 2.475-2.471l.508.508.508-.508a1.75 1.75 0 0 1 2.475 2.474l-.508.509.508.508a1.75 1.75 0 0 1 -2.475 2.475l-.508-.509-.508.509a1.75 1.75 0 1 1 -2.475-2.475z" fill="url(#a)"/></svg>
