<svg height="512" viewBox="0 0 128 128" width="512" xmlns="http://www.w3.org/2000/svg" xmlns:xlink="http://www.w3.org/1999/xlink"><linearGradient id="a" gradientUnits="userSpaceOnUse" x1="120.578" x2="9.734" y1="118.266" y2="7.422"><stop offset="0" stop-color="#f77c90"/><stop offset="1" stop-color="#8cc9fe"/></linearGradient><path d="m46.185 50.382v3.368a1.75 1.75 0 0 1 -3.5 0v-3.368a1.75 1.75 0 0 1 3.5 0zm65.684-26.35v102.218a1.75 1.75 0 0 1 -1.75 1.75h-65.684a1.75 1.75 0 0 1 -1.75-1.75v-20.532h-24.8a1.75 1.75 0 0 1 -1.75-1.75v-102.218a1.75 1.75 0 0 1 1.746-1.75h74.594a1.778 1.778 0 0 1 1.75 1.75v20.532h15.894a1.75 1.75 0 0 1 1.75 1.75zm-21.144-19.541-38.357 17.791h38.357zm17.644 21.291h-62.184v14.353a1.75 1.75 0 0 1 -3.5 0v-16.1a1.8 1.8 0 0 1 1.015-1.591l40.842-18.944h-64.911v98.718h23.054v-38.218a1.75 1.75 0 0 1 3.5 0v60.5h62.184zm-55.934 29.7a1.751 1.751 0 0 0 -1.75 1.75v61.018a1.75 1.75 0 0 0 1.75 1.75h49.684a1.75 1.75 0 0 0 1.75-1.75v-6.687a1.75 1.75 0 0 0 -3.5 0v4.937h-46.184v-57.518h46.184v38.893a1.75 1.75 0 0 0 3.5 0v-40.643a1.751 1.751 0 0 0 -1.75-1.75zm-1.383-8.949 2.29-5.325v-.01l4.239-9.857a1.75 1.75 0 0 1 3.215 0l4.243 9.859v.01l2.289 5.325a1.749 1.749 0 1 1 -3.214 1.383l-1.841-4.281h-6.17l-1.841 4.281a1.75 1.75 0 1 1 -3.215-1.383zm6.561-6.4h3.159l-1.579-3.673zm14.349 7.09v-15.191a1.75 1.75 0 0 1 1.75-1.75h6.41a5.919 5.919 0 0 1 5.912 5.918v6.866a5.92 5.92 0 0 1 -5.912 5.914h-6.41a1.751 1.751 0 0 1 -1.75-1.755zm3.5-1.75h4.66a2.415 2.415 0 0 0 2.412-2.414v-6.859a2.415 2.415 0 0 0 -2.412-2.413h-4.66zm14.966-13.441v7.6a1.749 1.749 0 0 0 1.75 1.75h7.215v4.1h-7.215a1.75 1.75 0 0 0 0 3.5h8.965a1.751 1.751 0 0 0 1.75-1.75v-7.6a1.75 1.75 0 0 0 -1.75-1.75h-7.215v-4.1h7.215a1.75 1.75 0 1 0 0-3.5h-8.965a1.749 1.749 0 0 0 -1.75 1.75zm3.691 32.593h-33.684a1.75 1.75 0 0 0 0 3.5h33.684a1.75 1.75 0 0 0 0-3.5zm0 8.547h-33.684a1.75 1.75 0 0 0 0 3.5h33.684a1.75 1.75 0 0 0 0-3.5zm0 8.546h-33.684a1.75 1.75 0 0 0 0 3.5h33.684a1.75 1.75 0 0 0 0-3.5zm0 8.547h-33.684a1.75 1.75 0 1 0 0 3.5h33.684a1.75 1.75 0 0 0 0-3.5zm1.75 10.3a1.751 1.751 0 0 0 -1.75-1.75h-33.684a1.75 1.75 0 0 0 0 3.5h33.684a1.75 1.75 0 0 0 1.75-1.755zm-28.94 6.8a1.75 1.75 0 0 0 0 3.5h20.7a1.75 1.75 0 0 0 0-3.5z" fill="url(#a)"/></svg>
