<?xml version="1.0" encoding="UTF-8"?>
<svg xmlns="http://www.w3.org/2000/svg" xmlns:xlink="http://www.w3.org/1999/xlink" width="512" height="512" viewBox="0 0 128 128"><defs><linearGradient id="a" x1="117.184" y1="119.653" x2="10.816" y2="13.285" gradientUnits="userSpaceOnUse"><stop offset="0" stop-color="#f77c90"/><stop offset="1" stop-color="#8cc9fe"/></linearGradient></defs><path d="M112.39,68.5v2.25a1.75,1.75,0,0,1-3.5,0V68.5a1.75,1.75,0,0,1,3.5,0Zm0-42.978a3.755,3.755,0,0,0-3.75-3.75H19.36a3.755,3.755,0,0,0-3.75,3.75V84.905a3.755,3.755,0,0,0,3.75,3.75h89.28a3.755,3.755,0,0,0,3.75-3.75V80a1.75,1.75,0,0,0-3.5,0v4.905a.251.251,0,0,1-.25.25H19.36a.251.251,0,0,1-.25-.25V25.522a.251.251,0,0,1,.25-.25h89.28a.251.251,0,0,1,.25.25V59.25a1.75,1.75,0,0,0,3.5,0ZM128,97.231v7.574a9.761,9.761,0,0,1-9.75,9.75H9.75A9.761,9.761,0,0,1,0,104.805V97.231a3.755,3.755,0,0,1,3.75-3.75H7.284V19.2a5.756,5.756,0,0,1,5.75-5.75H24.375a1.75,1.75,0,0,1,0,3.5H13.034a2.253,2.253,0,0,0-2.25,2.25V93.481H117.216V19.2a2.253,2.253,0,0,0-2.25-2.25H36a1.75,1.75,0,0,1,0-3.5h78.966a5.756,5.756,0,0,1,5.75,5.75V93.481h3.534A3.755,3.755,0,0,1,128,97.231Zm-83.1-.25v5.288H83.1V96.981Zm79.6.25a.251.251,0,0,0-.25-.25H86.6v7.038a1.751,1.751,0,0,1-1.75,1.75h-41.7a1.751,1.751,0,0,1-1.75-1.75V96.981H3.75a.251.251,0,0,0-.25.25v7.574a6.257,6.257,0,0,0,6.25,6.25h108.5a6.257,6.257,0,0,0,6.25-6.25ZM72.939,45.872l-.827,2.248H86.1a5.757,5.757,0,0,1,5.75,5.75v19a5.757,5.757,0,0,1-5.75,5.75H63.614a1.749,1.749,0,0,1-.919-.261L58.879,76v.864a1.749,1.749,0,0,1-1.75,1.75H37.9a1.75,1.75,0,0,1-1.75-1.75v-27a1.75,1.75,0,0,1,1.75-1.75H55.908l5.578-15.165a1.75,1.75,0,0,1,1.643-1.145,10.452,10.452,0,0,1,9.81,14.062ZM55.379,51.62H39.651v23.5H55.379Zm14.224,0a1.75,1.75,0,0,1-1.642-2.354l1.693-4.6a6.959,6.959,0,0,0-5.341-9.256L58.879,50.182V71.89l5.231,3.226H86.1a2.253,2.253,0,0,0,2.25-2.25v-19a2.253,2.253,0,0,0-2.25-2.25ZM47.515,54.781a1.75,1.75,0,0,0-1.75,1.75v2.157a1.75,1.75,0,0,0,3.5,0V56.531A1.751,1.751,0,0,0,47.515,54.781Z" fill="url(#a)"/></svg>
