<?xml version="1.0" encoding="UTF-8"?>
<svg xmlns="http://www.w3.org/2000/svg" xmlns:xlink="http://www.w3.org/1999/xlink" width="512" height="512" viewBox="0 0 128 128"><defs><linearGradient id="a" x1="112.811" y1="99.703" x2="28.953" y2="15.846" gradientUnits="userSpaceOnUse"><stop offset="0" stop-color="#f77c90"/><stop offset="1" stop-color="#8cc9fe"/></linearGradient></defs><path d="M49.642,56.718v19.07a1.75,1.75,0,0,1-1.75,1.75H9.75A1.749,1.749,0,0,1,8,75.788V56.718a20.886,20.886,0,0,1,8.712-16.929,1.75,1.75,0,0,1,2.039,2.844A17.381,17.381,0,0,0,11.5,56.718v17.32H46.142V56.718A17.341,17.341,0,0,0,28.82,39.4a1.75,1.75,0,0,1,0-3.5A20.845,20.845,0,0,1,49.642,56.718ZM128,51.2V83.789a1.749,1.749,0,0,1-1.75,1.75H115.062a1.75,1.75,0,0,1,0-3.5H124.5V51.2a19.823,19.823,0,0,0-19.8-19.8H91.372V44.926h2.875a5.756,5.756,0,0,1,5.75,5.75v3.949a5.756,5.756,0,0,1-5.75,5.75H77a5.756,5.756,0,0,1-5.75-5.75V50.676A5.756,5.756,0,0,1,77,44.926h2.875V31.4H42.577A29,29,0,0,1,57.642,56.718v25.32H91.625a1.75,1.75,0,0,1,0,3.5H73.75v40.922a1.749,1.749,0,0,1-1.75,1.75H56a1.749,1.749,0,0,1-1.75-1.75V85.538H1.75A1.749,1.749,0,0,1,0,83.788V56.718A28.853,28.853,0,0,1,28.807,27.9H79.872V1.747A1.749,1.749,0,0,1,81.622,0H110a1.749,1.749,0,0,1,1.75,1.75V18.5A1.749,1.749,0,0,1,110,20.25H91.372V27.9H104.7A23.328,23.328,0,0,1,128,51.2ZM3.5,82.038H54.142V56.718a25.321,25.321,0,1,0-50.642,0Zm66.75,3.5H57.75v39.172h12.5ZM83.372,16.75H108.25V3.5H83.372ZM94.247,48.426H77a2.253,2.253,0,0,0-2.25,2.25v3.949A2.253,2.253,0,0,0,77,56.875h17.25a2.253,2.253,0,0,0,2.25-2.25V50.676A2.253,2.253,0,0,0,94.247,48.426Zm-6.375-3.5V20.25h-4.5V44.926Zm16.69,37.113h-2.437a1.75,1.75,0,0,0,0,3.5h2.437a1.75,1.75,0,0,0,0-3.5Z" fill="url(#a)"/></svg>
