<svg height="512" viewBox="0 0 128 128" width="512" xmlns="http://www.w3.org/2000/svg" xmlns:xlink="http://www.w3.org/1999/xlink"><linearGradient id="a" gradientUnits="userSpaceOnUse" x1="109.268" x2="29.583" y1="95.061" y2="15.376"><stop offset="0" stop-color="#f77c90"/><stop offset="1" stop-color="#8cc9fe"/></linearGradient><path d="m67.647 48.349v3.9a1.75 1.75 0 0 1 -3.5 0v-3.9a1.75 1.75 0 0 1 3.5 0zm60.353-6.662v17.187a6.757 6.757 0 0 1 -6.75 6.75h-3.258v18.076a6.391 6.391 0 0 1 -6.384 6.384h-.5a6.391 6.391 0 0 1 -6.384-6.384v-.528l-38.582-10.02a1.8 1.8 0 0 1 -.245.024h-9.389v7.631a5.757 5.757 0 0 1 -5.75 5.75h-.118l8.934 28.692a1.751 1.751 0 0 1 -1.674 2.271h-15.009a1.75 1.75 0 0 1 -1.671-1.23l-1.777-5.706a1.75 1.75 0 1 1 3.342-1.04l1.394 4.476h11.346l-8.551-27.463h-11.346l3.685 11.835a1.75 1.75 0 1 1 -3.341 1.041l-4.01-12.876h-.49a5.757 5.757 0 0 1 -5.75-5.75v-7.662a11.759 11.759 0 0 1 -11.077-10.5h-2.892a11.766 11.766 0 0 1 -11.753-11.756v-1.07a11.766 11.766 0 0 1 11.753-11.753h2.892a11.767 11.767 0 0 1 11.687-10.535h39.342l39.055-10.138v-.529a6.391 6.391 0 0 1 6.384-6.384h.5a6.391 6.391 0 0 1 6.384 6.384v18.073h3.258a6.758 6.758 0 0 1 6.745 6.75zm-116.247 17.455h2.829v-17.576h-2.829a8.262 8.262 0 0 0 -8.253 8.253v1.07a8.262 8.262 0 0 0 8.253 8.253zm13.363 10.434v-38.445a8.255 8.255 0 0 0 -7.034 8.15v22.145a8.255 8.255 0 0 0 7.034 8.15zm27.892 3.6h-23.786v7.631a2.252 2.252 0 0 0 2.25 2.25h19.286a2.253 2.253 0 0 0 2.25-2.25zm51.721 6.377v-58.544l-37.082 9.626v6.8a1.75 1.75 0 0 1 -3.5 0v-6.404h-35.531v38.645h35.531v-6.515a1.75 1.75 0 1 1 3.5 0v6.766zm9.763-62.689a2.888 2.888 0 0 0 -2.884-2.884h-.5a2.888 2.888 0 0 0 -2.884 2.884v66.836a2.887 2.887 0 0 0 2.884 2.884h.5a2.887 2.887 0 0 0 2.884-2.884zm10.008 24.823a3.254 3.254 0 0 0 -3.25-3.25h-3.258v23.687h3.258a3.253 3.253 0 0 0 3.25-3.25z" fill="url(#a)"/></svg>
