<svg height="512" viewBox="0 0 128 128" width="512" xmlns="http://www.w3.org/2000/svg" xmlns:xlink="http://www.w3.org/1999/xlink"><linearGradient id="a" gradientUnits="userSpaceOnUse" x1="110.961" x2="17.042" y1="130.907" y2="36.987"><stop offset="0" stop-color="#f77c90"/><stop offset="1" stop-color="#8cc9fe"/></linearGradient><path d="m55.892 77.763a1.75 1.75 0 0 1 0 2.474l-1.655 1.655a1.75 1.75 0 0 1 -2.474-2.475l1.654-1.654a1.749 1.749 0 0 1 2.475 0zm-22.8 19.59a8.847 8.847 0 1 1 -8.847-8.847 8.857 8.857 0 0 1 8.848 8.847zm-3.5 0a5.347 5.347 0 1 0 -5.347 5.347 5.354 5.354 0 0 0 5.348-5.347zm98.4 6.532a24.11 24.11 0 1 1 -44.724-12.485l-19.268-19.271-2.186 2.186a1.75 1.75 0 1 1 -2.474-2.475l3.423-3.423a1.748 1.748 0 0 1 2.474 0l20.088 20.083a28.8 28.8 0 0 1 3.181-3.183l-21.743-21.74a1.75 1.75 0 0 1 -.513-1.237v-14.226a26.01 26.01 0 0 1 -4.5 0v14.226a1.75 1.75 0 0 1 -.513 1.237l-21.744 21.744a28.72 28.72 0 0 1 3.182 3.179l3.165-3.16a1.75 1.75 0 1 1 2.474 2.475l-3.582 3.585a24.1 24.1 0 0 1 -34.758 32 24.1 24.1 0 0 1 26.626-40.134l21.65-21.651v-14.1a23.742 23.742 0 0 1 -8.393-3.893 24.106 24.106 0 1 1 27.179.761 23.724 23.724 0 0 1 -7.286 3.132v14.1l21.65 21.651a24.1 24.1 0 0 1 36.6 20.619zm-92.255 17v-4.154a3.924 3.924 0 0 0 -3.92-3.92h-15.145a3.924 3.924 0 0 0 -3.92 3.92v4.335a20.513 20.513 0 0 0 22.988-.181zm8.985-17a20.61 20.61 0 1 0 -35.47 14.268v-1.426a7.428 7.428 0 0 1 7.42-7.42h15.148a7.428 7.428 0 0 1 7.42 7.42v1.159a20.5 20.5 0 0 0 5.485-14.001zm4.412-65.507v-1.427a7.428 7.428 0 0 1 7.42-7.42h12.946a1.75 1.75 0 0 1 0 3.5h-12.943a3.924 3.924 0 0 0 -3.92 3.92v4.336a20.608 20.608 0 0 0 22.988-.18v-4.156a1.75 1.75 0 1 1 3.5 0v1.161a20.616 20.616 0 1 0 -29.988.266zm66.373 82.5v-4.154a3.924 3.924 0 0 0 -3.92-3.92h-15.145a3.924 3.924 0 0 0 -3.92 3.92v4.335a20.513 20.513 0 0 0 22.988-.181zm8.985-17a20.61 20.61 0 1 0 -35.473 14.268v-1.426a7.428 7.428 0 0 1 7.42-7.42h15.151a7.428 7.428 0 0 1 7.42 7.42v1.159a20.5 20.5 0 0 0 5.49-13.994zm-11.632-6.532a8.847 8.847 0 1 1 -8.847-8.847 8.857 8.857 0 0 1 8.85 8.854zm-3.5 0a5.347 5.347 0 1 0 -5.347 5.347 5.354 5.354 0 0 0 5.35-5.34zm-54.075-79.768a8.847 8.847 0 1 1 8.846 8.847 8.856 8.856 0 0 1 -8.846-8.847zm3.5 0a5.347 5.347 0 1 0 5.346-5.347 5.353 5.353 0 0 0 -5.346 5.347z" fill="url(#a)"/></svg>
