<?xml version="1.0" encoding="UTF-8"?>
<svg xmlns="http://www.w3.org/2000/svg" xmlns:xlink="http://www.w3.org/1999/xlink" width="512" height="512" viewBox="0 0 128 128"><defs><linearGradient id="a" x1="115.571" y1="130.019" x2="-5.538" y2="8.91" gradientUnits="userSpaceOnUse"><stop offset="0" stop-color="#f77c90"/><stop offset="1" stop-color="#8cc9fe"/></linearGradient></defs><path d="M92.066,104.625v3.25a1.75,1.75,0,0,1-3.5,0v-3.25a1.75,1.75,0,0,1,3.5,0ZM128,64V110.25A17.77,17.77,0,0,1,110.25,128H17.75A17.77,17.77,0,0,1,0,110.25V5.75A5.757,5.757,0,0,1,5.75,0H86.316a5.757,5.757,0,0,1,5.75,5.75v56.5H126.25A1.75,1.75,0,0,1,128,64Zm-3.5,1.75H92.066V93a1.75,1.75,0,0,1-3.5,0V5.75a2.252,2.252,0,0,0-2.25-2.25H5.75A2.253,2.253,0,0,0,3.5,5.75v104.5A14.267,14.267,0,0,0,17.75,124.5H88.566v-5a1.75,1.75,0,0,1,3.5,0v5H110.25a14.267,14.267,0,0,0,14.25-14.25ZM82.066,11.878V45.686a1.75,1.75,0,0,1-1.75,1.75H11.75A1.75,1.75,0,0,1,10,45.686V11.878a1.75,1.75,0,0,1,1.75-1.75H80.316A1.75,1.75,0,0,1,82.066,11.878Zm-3.5,1.75H13.5V43.936H78.566ZM21.134,35.389l2.2-5.111.008-.019,4.071-9.467a1.75,1.75,0,0,1,3.215,0L34.7,30.258l.008.02,2.2,5.111a1.75,1.75,0,1,1-3.215,1.383L31.937,32.7H26.1l-1.751,4.072a1.75,1.75,0,0,1-3.215-1.383ZM27.605,29.2h2.827l-1.413-3.286Zm13.614,6.881v-14.6a1.75,1.75,0,0,1,1.75-1.75h6.159a5.757,5.757,0,0,1,5.75,5.75v6.6a5.757,5.757,0,0,1-5.75,5.75H42.969A1.75,1.75,0,0,1,41.219,36.081Zm3.5-1.75h4.409a2.253,2.253,0,0,0,2.25-2.25v-6.6a2.253,2.253,0,0,0-2.25-2.25H44.719Zm15.993,0a1.75,1.75,0,0,0,0,3.5h8.613a1.75,1.75,0,0,0,1.75-1.75v-7.3a1.75,1.75,0,0,0-1.75-1.75H62.462v-3.8h6.863a1.75,1.75,0,0,0,0-3.5H60.712a1.75,1.75,0,0,0-1.75,1.75v7.3a1.75,1.75,0,0,0,1.75,1.75h6.863v3.8Zm19.6,18.08H11.75A1.75,1.75,0,0,0,10,54.161V69.488a1.75,1.75,0,0,0,1.75,1.75h9.241a1.75,1.75,0,0,0,0-3.5H13.5V55.911H78.566V67.738H33.09a1.75,1.75,0,0,0,0,3.5H80.316a1.75,1.75,0,0,0,1.75-1.75V54.161A1.75,1.75,0,0,0,80.316,52.411Zm0,31.139H11.75a1.75,1.75,0,0,0,0,3.5H80.316a1.75,1.75,0,0,0,0-3.5Zm0,10.274H11.75a1.75,1.75,0,0,0,0,3.5H80.316a1.75,1.75,0,0,0,0-3.5Zm-10,10.274H21.75a1.75,1.75,0,0,0,0,3.5H70.316a1.75,1.75,0,0,0,0-3.5Zm-10,10.274H31.75a1.75,1.75,0,0,0,0,3.5H60.316a1.75,1.75,0,0,0,0-3.5Z" fill="url(#a)"/></svg>
