<svg height="512" viewBox="0 0 128 128" width="512" xmlns="http://www.w3.org/2000/svg" xmlns:xlink="http://www.w3.org/1999/xlink"><linearGradient id="a" gradientUnits="userSpaceOnUse" x1="113.621" x2="14.38" y1="122.565" y2="23.324"><stop offset="0" stop-color="#f77c90"/><stop offset="1" stop-color="#8cc9fe"/></linearGradient><path d="m107.46 106.813a1.75 1.75 0 0 0 1.75-1.75v-83.291a1.75 1.75 0 0 0 -1.75-1.75h-6.54v-6.265a1.749 1.749 0 0 0 -1.75-1.75h-7.852v-10.26a1.75 1.75 0 0 0 -3.5 0v10.26h-7.852a1.749 1.749 0 0 0 -1.75 1.75v6.265h-28.432v-6.265a1.749 1.749 0 0 0 -1.75-1.75h-7.9c-.012-2.214.012-6.408.05-10.242a1.752 1.752 0 0 0 -1.735-1.765h-.017a1.75 1.75 0 0 0 -1.75 1.732c-.054 5.375-.084 8.457-.053 10.278h-7.8a1.749 1.749 0 0 0 -1.75 1.75v6.265h-6.539a1.75 1.75 0 0 0 -1.75 1.75v104.476a1.749 1.749 0 0 0 1.75 1.749h86.92a1.749 1.749 0 0 0 1.75-1.75v-7.039a1.75 1.75 0 0 0 -3.5 0v5.289h-83.42v-100.978h83.42v81.541a1.75 1.75 0 0 0 1.75 1.75zm-76.88-86.791v-4.515h15.7v4.515zm51.136 0v-4.515h15.7v4.515zm-32.341 41.808a1.75 1.75 0 0 1 0 3.5h-2.075a1.75 1.75 0 0 1 0-3.5zm51.835 1.75a1.749 1.749 0 0 1 -1.75 1.75h-39.4a1.75 1.75 0 0 1 0-3.5h37.65v-30.308h-67.42v30.308h6.326a1.75 1.75 0 0 1 0 3.5h-8.076a1.749 1.749 0 0 1 -1.75-1.75v-33.808a1.75 1.75 0 0 1 1.75-1.75h70.92a1.75 1.75 0 0 1 1.75 1.75zm-47.946-7.855a1.751 1.751 0 0 0 1.606-2.442l-2.2-5.118v-.005l-4.074-9.474a1.75 1.75 0 0 0 -3.215 0l-4.071 9.466-.009.021-2.2 5.11a1.749 1.749 0 1 0 3.214 1.383l1.752-4.072h5.833l1.751 4.072a1.751 1.751 0 0 0 1.613 1.059zm-7.692-8.631 1.413-3.286 1.415 3.286zm21.522 8.631a5.756 5.756 0 0 0 5.75-5.75v-6.6a5.756 5.756 0 0 0 -5.75-5.75h-6.159a1.75 1.75 0 0 0 -1.75 1.75v14.6a1.751 1.751 0 0 0 1.75 1.75zm-4.409-14.6h4.409a2.253 2.253 0 0 1 2.25 2.25v6.6a2.253 2.253 0 0 1 -2.25 2.25h-4.409zm22.857 11.1v-3.8h-6.864a1.749 1.749 0 0 1 -1.75-1.75v-7.3a1.749 1.749 0 0 1 1.75-1.75h8.614a1.75 1.75 0 0 1 0 3.5h-6.864v3.8h6.864a1.749 1.749 0 0 1 1.75 1.75v7.3a1.75 1.75 0 0 1 -1.75 1.75h-8.614a1.75 1.75 0 0 1 0-3.5zm15.668 20.15a1.749 1.749 0 0 1 -1.75 1.75h-70.92a1.75 1.75 0 1 1 0-3.5h70.92a1.749 1.749 0 0 1 1.75 1.75zm0 9.018a1.75 1.75 0 0 1 -1.75 1.75h-70.92a1.75 1.75 0 1 1 0-3.5h70.92a1.749 1.749 0 0 1 1.75 1.75zm0 9.017a1.749 1.749 0 0 1 -1.75 1.75h-70.92a1.75 1.75 0 1 1 0-3.5h70.92a1.749 1.749 0 0 1 1.75 1.75zm0 9.018a1.749 1.749 0 0 1 -1.75 1.75h-70.92a1.75 1.75 0 1 1 0-3.5h70.92a1.749 1.749 0 0 1 1.75 1.75zm-1.75 10.766h-70.92a1.75 1.75 0 0 1 0-3.5h70.92a1.75 1.75 0 0 1 0 3.5zm-11.085 5.518a1.75 1.75 0 0 1 0 3.5h-48.75a1.75 1.75 0 1 1 0-3.5z" fill="url(#a)"/></svg>
