<?xml version="1.0" encoding="UTF-8"?>
<svg xmlns="http://www.w3.org/2000/svg" xmlns:xlink="http://www.w3.org/1999/xlink" width="512" height="512" viewBox="0 0 128 128"><defs><linearGradient id="a" x1="120.118" y1="105.378" x2="7.882" y2="-6.857" gradientUnits="userSpaceOnUse"><stop offset="0" stop-color="#f77c90"/><stop offset="1" stop-color="#8cc9fe"/></linearGradient></defs><path d="M126.25,13.347A1.749,1.749,0,0,0,128,11.6V1.75A1.75,1.75,0,0,0,126.25,0H1.75A1.75,1.75,0,0,0,0,1.75V11.6a1.749,1.749,0,0,0,1.75,1.75H5.23V85.174H1.75A1.75,1.75,0,0,0,0,86.924v9.847a1.75,1.75,0,0,0,1.75,1.75H14.094a1.75,1.75,0,0,0,0-3.5H3.5V88.674h121v6.347H39.969a1.75,1.75,0,0,0,0,3.5H58.25v7.238H52.31a12.764,12.764,0,0,0-12.75,12.75v7.738A1.75,1.75,0,0,0,41.31,128h8a1.751,1.751,0,0,0,1.75-1.75v-7.738a1.251,1.251,0,0,1,1.25-1.25h5.94v8.988A1.75,1.75,0,0,0,60,128h8a1.75,1.75,0,0,0,1.75-1.75v-8.988h5.94a1.251,1.251,0,0,1,1.25,1.25v7.738A1.751,1.751,0,0,0,78.69,128h8a1.75,1.75,0,0,0,1.75-1.75v-7.738a12.764,12.764,0,0,0-12.75-12.75H69.75V98.521h56.5a1.75,1.75,0,0,0,1.75-1.75V86.924a1.75,1.75,0,0,0-1.75-1.75h-3.481V13.347ZM68,109.259h7.69a9.26,9.26,0,0,1,9.25,9.25V124.5h-4.5v-5.988a4.755,4.755,0,0,0-4.75-4.75H68a1.75,1.75,0,0,0-1.75,1.75V124.5h-4.5v-8.988a1.75,1.75,0,0,0-1.75-1.75H52.31a4.755,4.755,0,0,0-4.75,4.75V124.5h-4.5v-5.988a9.26,9.26,0,0,1,9.25-9.25H60a1.749,1.749,0,0,0,1.75-1.75V98.521h4.5v8.988A1.749,1.749,0,0,0,68,109.259ZM3.5,3.5h121V9.847H3.5ZM119.269,85.174H8.73V13.347H119.269Zm-89.082,11.6a1.75,1.75,0,0,1-1.75,1.75H25.625a1.75,1.75,0,0,1,0-3.5h2.812A1.75,1.75,0,0,1,30.187,96.771ZM13.23,53.405V19.6a1.751,1.751,0,0,1,1.75-1.75h98.039a1.75,1.75,0,0,1,1.75,1.75v7.855a1.75,1.75,0,0,1-3.5,0v-6.1H16.73V51.655h94.539V40.5a1.75,1.75,0,0,1,3.5,0V53.405a1.75,1.75,0,0,1-1.75,1.75H14.98A1.751,1.751,0,0,1,13.23,53.405ZM52.668,37.986l-4.075-9.475a1.75,1.75,0,0,0-3.215,0l-4.071,9.467L41.3,38l-2.2,5.112a1.749,1.749,0,1,0,3.214,1.383l1.752-4.073H49.9l1.751,4.073a1.75,1.75,0,1,0,3.215-1.383l-2.2-5.12Zm-7.1-1.068,1.413-3.286L48.4,36.918Zm15.363-9.466a1.751,1.751,0,0,0-1.75,1.75V43.8a1.75,1.75,0,0,0,1.75,1.75h6.159a5.756,5.756,0,0,0,5.75-5.75V33.2a5.757,5.757,0,0,0-5.75-5.75Zm8.409,5.75v6.6a2.253,2.253,0,0,1-2.25,2.25H62.685v-11.1h4.409A2.253,2.253,0,0,1,69.344,33.2Zm11.084-2.25v3.8h6.864a1.75,1.75,0,0,1,1.75,1.75v7.3a1.749,1.749,0,0,1-1.75,1.75H78.678a1.75,1.75,0,0,1,0-3.5h6.864v-3.8H78.678a1.75,1.75,0,0,1-1.75-1.75V29.2a1.75,1.75,0,0,1,1.75-1.75h8.614a1.75,1.75,0,0,1,0,3.5ZM13.23,61.411a1.751,1.751,0,0,1,1.75-1.75h98.039a1.75,1.75,0,0,1,0,3.5H14.98A1.751,1.751,0,0,1,13.23,61.411Zm0,8.753a1.751,1.751,0,0,1,1.75-1.75h98.039a1.75,1.75,0,0,1,0,3.5H14.98A1.751,1.751,0,0,1,13.23,70.164Zm85.145,8.753a1.749,1.749,0,0,1-1.75,1.75H31.375a1.75,1.75,0,0,1,0-3.5h65.25A1.75,1.75,0,0,1,98.375,78.917Z" fill="url(#a)"/></svg>
