<?xml version="1.0" encoding="UTF-8"?>
<svg xmlns="http://www.w3.org/2000/svg" xmlns:xlink="http://www.w3.org/1999/xlink" width="512" height="512" viewBox="0 0 128 128"><defs><linearGradient id="a" x1="109.605" y1="114.978" x2="18.77" y2="24.142" gradientUnits="userSpaceOnUse"><stop offset="0" stop-color="#f77c90"/><stop offset="1" stop-color="#8cc9fe"/></linearGradient></defs><path d="M28.105,41.29a13.272,13.272,0,0,1,2.926-8.3,1.75,1.75,0,1,1,2.726,2.2,9.63,9.63,0,0,0-2.152,6.1,9.746,9.746,0,1,0,9.746-9.745,1.75,1.75,0,0,1,0-3.5A13.245,13.245,0,1,1,28.105,41.29Zm99.9,4V92.325a5.756,5.756,0,0,1-5.75,5.75H120v4.13a5.756,5.756,0,0,1-5.75,5.75H14.5a5.757,5.757,0,0,1-5.75-5.75v-4.13h-3A5.757,5.757,0,0,1,0,92.325V45.29a5.757,5.757,0,0,1,5.75-5.75H20.194a21.227,21.227,0,0,1,42.313,0H94.25v-2.9a5.756,5.756,0,0,1,5.75-5.75h13.493a5.756,5.756,0,0,1,5.75,5.75v2.9h3.007A5.756,5.756,0,0,1,128,45.29ZM97.75,39.54h17.993v-2.9a2.253,2.253,0,0,0-2.25-2.25H100a2.253,2.253,0,0,0-2.25,2.25ZM22.494,51.04H11.5V86.575h105V51.04H60.207a21.213,21.213,0,0,1-37.7.017Zm1.111-9.75A17.746,17.746,0,1,0,41.351,23.545,17.765,17.765,0,0,0,23.605,41.29Zm92.9,56.785H12.25v4.13a2.253,2.253,0,0,0,2.25,2.25h99.75a2.253,2.253,0,0,0,2.25-2.25Zm8-52.785a2.253,2.253,0,0,0-2.25-2.25H62.524a25.554,25.554,0,0,1-.869,4.5h56.6A1.749,1.749,0,0,1,120,49.29V88.325a1.749,1.749,0,0,1-1.75,1.75H9.75A1.75,1.75,0,0,1,8,88.325V49.29a1.75,1.75,0,0,1,1.75-1.75h11.3a25.554,25.554,0,0,1-.869-4.5H5.75A2.253,2.253,0,0,0,3.5,45.29V92.325a2.253,2.253,0,0,0,2.25,2.25h116.5a2.253,2.253,0,0,0,2.25-2.25ZM82.625,59.04h2.75a1.75,1.75,0,0,0,0-3.5h-2.75a1.75,1.75,0,0,0,0,3.5ZM63.693,82.075H110.25a1.749,1.749,0,0,0,1.75-1.75V57.29a1.749,1.749,0,0,0-1.75-1.75H96a1.75,1.75,0,0,0,0,3.5h12.5V78.575H65.442V59.04H72a1.75,1.75,0,0,0,0-3.5H63.693a1.75,1.75,0,0,0-1.75,1.75V80.325A1.75,1.75,0,0,0,63.693,82.075ZM16,80.325v-9.62a1.75,1.75,0,0,1,1.75-1.75H55.686a1.749,1.749,0,0,1,1.75,1.75v9.62a1.749,1.749,0,0,1-1.75,1.75H17.75A1.75,1.75,0,0,1,16,80.325Zm3.5-1.75H53.936v-6.12H19.5Z" fill="url(#a)"/></svg>
