<svg height="512" viewBox="0 0 128 128" width="512" xmlns="http://www.w3.org/2000/svg" xmlns:xlink="http://www.w3.org/1999/xlink"><linearGradient id="a" gradientUnits="userSpaceOnUse" x1="120.538" x2="26.106" y1="108.996" y2="14.563"><stop offset="0" stop-color="#f77c90"/><stop offset="1" stop-color="#8cc9fe"/></linearGradient><path d="m104.3 62.606v-3.447h2.659a6.158 6.158 0 0 0 6.151-6.151v-15.133a6.158 6.158 0 0 0 -6.151-6.151h-2.659v-15.7a5.837 5.837 0 0 0 -5.83-5.83h-.437a5.837 5.837 0 0 0 -5.829 5.83v.3l-6.051 1.576a1.75 1.75 0 1 0 .879 3.388l5.168-1.347v43.559a28.2 28.2 0 0 0 -9.414 5l-22.81-5.924v-34.269l6.682-1.734a1.75 1.75 0 1 0 -.879-3.388l-7.779 2.015h-34.608a10.565 10.565 0 0 0 -10.469 9.275h-2.366a10.569 10.569 0 0 0 -10.557 10.56v.942a10.568 10.568 0 0 0 10.557 10.556h2.366a10.561 10.561 0 0 0 9.722 9.237v6.547a5.279 5.279 0 0 0 5.272 5.272h.277l8.106 26.03a1.749 1.749 0 0 0 1.671 1.23h13.216a1.75 1.75 0 0 0 1.671-2.271l-7.786-25.007a5.269 5.269 0 0 0 5.1-5.254v-6.509h8.058a1.734 1.734 0 0 0 .192-.02l21.369 5.547a27.647 27.647 0 0 0 -7.291 18.723 1.75 1.75 0 0 0 3.5 0 24.238 24.238 0 1 1 3.227 12.1 1.75 1.75 0 0 0 -3.032 1.748 27.752 27.752 0 1 0 28.105-41.3zm-47.824-.3h-30.864v-33.606h30.864zm-52.976-16.329v-.942a7.066 7.066 0 0 1 7.057-7.057h2.281v15.055h-2.281a7.065 7.065 0 0 1 -7.057-7.056zm12.838 9.277v-19.5a7.063 7.063 0 0 1 5.774-6.933v33.36a7.06 7.06 0 0 1 -5.774-6.927zm22.921 46.1-7.4-23.76h9.551l7.4 23.76zm7.409-29.032a1.774 1.774 0 0 1 -1.768 1.767h-16.983a1.774 1.774 0 0 1 -1.772-1.772v-6.509h20.523zm60.291-37.093a2.654 2.654 0 0 1 2.651 2.651v15.128a2.654 2.654 0 0 1 -2.651 2.651h-2.659v-20.435zm-11.259-19.207a2.332 2.332 0 0 1 2.329-2.33h.437a2.332 2.332 0 0 1 2.33 2.33v46.293a29.08 29.08 0 0 0 -5.1.368zm-22.43 7.026a1.75 1.75 0 0 1 1.253-2.134l2.876-.747a1.75 1.75 0 0 1 .881 3.387l-2.876.747a1.721 1.721 0 0 1 -.441.056 1.749 1.749 0 0 1 -1.689-1.309zm36.445 53.721a1.749 1.749 0 0 0 -2.475 0l-20.7 20.7a1.748 1.748 0 0 0 0 2.474l4.242 4.243a1.752 1.752 0 0 0 2.475 0l20.705-20.7a1.748 1.748 0 0 0 0-2.474zm-17.7 23.709-1.764-1.768 18.23-18.23 1.768 1.768zm14.685-3.978a5.25 5.25 0 1 0 7.424 0 5.256 5.256 0 0 0 -7.424 0zm4.949 4.95a1.75 1.75 0 1 1 0-2.475 1.752 1.752 0 0 1 -.005 2.478zm-25.268-25.261a5.25 5.25 0 1 0 7.424 0 5.255 5.255 0 0 0 -7.424 0zm4.949 4.95a1.75 1.75 0 1 1 0-2.476 1.755 1.755 0 0 1 0 2.476z" fill="url(#a)"/></svg>
