<svg height="512" viewBox="0 0 128 128" width="512" xmlns="http://www.w3.org/2000/svg" xmlns:xlink="http://www.w3.org/1999/xlink"><linearGradient id="a" gradientUnits="userSpaceOnUse" x1="118.528" x2="29.817" y1="111.571" y2="22.859"><stop offset="0" stop-color="#f77c90"/><stop offset="1" stop-color="#8cc9fe"/></linearGradient><path d="m108.727 61.31a38.993 38.993 0 0 0 -5.6 20.611v20.705a1.75 1.75 0 0 1 -3.5 0v-20.7a42.392 42.392 0 0 1 6.084-22.38 38.7 38.7 0 0 0 2.065-32.227c-5.876-14.73-20.543-23.819-38.362-23.819-.183 0-.365 0-.548 0-20.289.21-36.795 17.2-36.795 37.87v14.018a1.749 1.749 0 0 1 -.258.914l-12.78 20.86h10.6a1.749 1.749 0 0 1 1.75 1.75v14.179a4.255 4.255 0 0 0 4.25 4.25h11.444a7.759 7.759 0 0 1 7.75 7.75v19.409h44.8v-9.25a1.75 1.75 0 0 1 3.5 0v11a1.751 1.751 0 0 1 -1.75 1.75h-48.3a1.749 1.749 0 0 1 -1.75-1.75v-21.159a4.255 4.255 0 0 0 -4.25-4.25h-11.446a7.759 7.759 0 0 1 -7.75-7.75v-12.429h-11.972a1.75 1.75 0 0 1 -1.493-2.662l14.155-23.1v-13.528c0-22.581 18.06-41.14 40.258-41.372h.588c19.283 0 35.191 9.93 41.607 26.018a42.315 42.315 0 0 1 -2.297 35.292zm-25.521 12.053a1.766 1.766 0 0 0 .685-.139 33.354 33.354 0 0 0 4.7-2.462 1.75 1.75 0 1 0 -1.868-2.962 29.607 29.607 0 0 1 -4.2 2.2 1.75 1.75 0 0 0 .687 3.36zm12.814-11.685a1.749 1.749 0 0 0 2.43-.471 33.26 33.26 0 1 0 -27.576 14.661 1.75 1.75 0 0 0 0-3.5 29.748 29.748 0 1 1 24.676-13.12 1.751 1.751 0 0 0 .47 2.43zm-34.3-31.511a7.1 7.1 0 0 1 0 14.194h-4.714v8.945a1.75 1.75 0 0 1 -3.5 0v-21.389a1.75 1.75 0 0 1 1.75-1.75zm0 3.5h-4.714v7.194h4.712a3.6 3.6 0 0 0 0-7.194zm20.335 10.633 5.845 7.971a1.75 1.75 0 1 1 -2.822 2.07l-7.318-9.98h-1.327v8.945a1.75 1.75 0 0 1 -3.5 0v-21.389a1.749 1.749 0 0 1 1.75-1.75h6.461a7.094 7.094 0 0 1 .911 14.133zm2.686-7.031a3.6 3.6 0 0 0 -3.6-3.6h-4.708v7.194h4.711a3.6 3.6 0 0 0 3.597-3.598z" fill="url(#a)"/></svg>