<?xml version="1.0" encoding="UTF-8"?>
<svg xmlns="http://www.w3.org/2000/svg" xmlns:xlink="http://www.w3.org/1999/xlink" width="512" height="512" viewBox="0 0 128 128"><defs><linearGradient id="a" x1="113.365" y1="132.082" x2="14.31" y2="33.027" gradientUnits="userSpaceOnUse"><stop offset="0" stop-color="#f77c90"/><stop offset="1" stop-color="#8cc9fe"/></linearGradient></defs><path d="M122.25,44.614H116.1V40.631a3.755,3.755,0,0,0-3.75-3.75H101.625a3.755,3.755,0,0,0-3.75,3.75v3.983h-5.5V40.631a3.755,3.755,0,0,0-3.75-3.75H77.9a3.755,3.755,0,0,0-3.75,3.75v3.983H26.478V40.631a3.711,3.711,0,0,0-.841-2.337L44.154,20.836A7.381,7.381,0,1,0,41.7,18.344L22.034,36.881H12.007a3.755,3.755,0,0,0-3.75,3.75v3.983H5.75A5.756,5.756,0,0,0,0,50.364v64.705a5.756,5.756,0,0,0,5.75,5.75h116.5a5.756,5.756,0,0,0,5.75-5.75V50.364A5.756,5.756,0,0,0,122.25,44.614Zm-20.875-3.983a.25.25,0,0,1,.25-.25h10.722a.251.251,0,0,1,.25.25v3.983H101.375Zm-23.722,0a.251.251,0,0,1,.25-.25H88.625a.25.25,0,0,1,.25.25v3.983H77.653ZM45.276,11.816a3.879,3.879,0,1,1,0,5.486A3.865,3.865,0,0,1,45.276,11.816ZM11.757,40.631a.25.25,0,0,1,.25-.25H22.728a.25.25,0,0,1,.25.25v3.983H11.757ZM124.5,115.069a2.253,2.253,0,0,1-2.25,2.25H5.75a2.253,2.253,0,0,1-2.25-2.25V50.364a2.253,2.253,0,0,1,2.25-2.25h116.5a2.253,2.253,0,0,1,2.25,2.25ZM120,99.46v11.609a1.749,1.749,0,0,1-1.75,1.75H106a1.75,1.75,0,0,1,0-3.5h10.5V101.21H46.065v8.109H94.187a1.75,1.75,0,0,1,0,3.5H44.315a1.75,1.75,0,0,1-1.75-1.75V99.46a1.75,1.75,0,0,1,1.75-1.75H118.25A1.749,1.749,0,0,1,120,99.46ZM48.524,78.15a1.75,1.75,0,0,1,0-3.5h2.351a1.75,1.75,0,0,1,0,3.5ZM118.25,52.614H9.75A1.749,1.749,0,0,0,8,54.364V76.4a1.749,1.749,0,0,0,1.75,1.75H38.4a1.75,1.75,0,0,0,0-3.5H28.125V64a1.749,1.749,0,0,0-1.75-1.75H20.25A1.749,1.749,0,0,0,18.5,64V74.65h-7V56.114h105V74.65H61a1.75,1.75,0,0,0,0,3.5h57.25A1.749,1.749,0,0,0,120,76.4V54.364A1.749,1.749,0,0,0,118.25,52.614ZM22,65.747h2.625v8.9H22Zm1.081,16.91A15.081,15.081,0,1,0,38.162,97.738,15.1,15.1,0,0,0,23.081,82.657Zm0,26.662A11.581,11.581,0,1,1,34.662,97.738,11.594,11.594,0,0,1,23.081,109.319Zm0-18.662a7.081,7.081,0,1,0,7.081,7.081A7.09,7.09,0,0,0,23.081,90.657Zm0,10.662a3.581,3.581,0,1,1,3.581-3.581A3.585,3.585,0,0,1,23.081,101.319ZM118.25,82.7H44.315a1.75,1.75,0,0,0-1.75,1.75v7a1.75,1.75,0,0,0,1.75,1.75H118.25a1.749,1.749,0,0,0,1.75-1.75v-7A1.749,1.749,0,0,0,118.25,82.7Zm-1.75,7H46.065V86.2H116.5Z" fill="url(#a)"/></svg>
