<svg height="512" viewBox="0 0 128 128" width="512" xmlns="http://www.w3.org/2000/svg" xmlns:xlink="http://www.w3.org/1999/xlink"><linearGradient id="a" gradientUnits="userSpaceOnUse" x1="97.387" x2="30.613" y1="96.072" y2="29.299"><stop offset="0" stop-color="#f77c90"/><stop offset="1" stop-color="#8cc9fe"/></linearGradient><path d="m76.644 113.448a8.146 8.146 0 0 1 -2.632 5.988l-8.828 8.1a1.751 1.751 0 0 1 -2.368 0l-8.828-8.105a8.127 8.127 0 0 1 5.5-14.115h9.032a1.75 1.75 0 1 1 0 3.5h-9.036a4.627 4.627 0 0 0 -3.13 8.036l7.646 7.023 7.645-7.018a4.636 4.636 0 0 0 1.5-3.409 1.75 1.75 0 1 1 3.5 0zm-20.937-87.361a1.75 1.75 0 1 0 1.6 3.111 14.464 14.464 0 0 1 6.693-1.617 14.617 14.617 0 1 1 -14.616 14.619 1.75 1.75 0 0 0 -3.5 0 18.107 18.107 0 1 0 9.823-16.11zm-6.962 9.924a1.75 1.75 0 0 0 2.368-.717c.221-.412.466-.818.727-1.209a1.75 1.75 0 1 0 -2.908-1.947c-.326.485-.629.991-.9 1.5a1.751 1.751 0 0 0 .713 2.373zm66.2 38.952a1.749 1.749 0 0 1 -1.428.739h-22.274l-9.127 11.545v7.265a5.756 5.756 0 0 1 -5.75 5.75h-24.732a5.756 5.756 0 0 1 -5.75-5.75v-7.264l-9.126-11.548h-22.273a1.75 1.75 0 0 1 -1.65-2.333l5.62-15.917a20.382 20.382 0 0 1 17.452-13.492 49.866 49.866 0 0 1 27.293-43.768 1.752 1.752 0 0 1 1.6 0 49.87 49.87 0 0 1 27.3 43.768 20.382 20.382 0 0 1 17.452 13.494l5.62 15.917a1.752 1.752 0 0 1 -.229 1.594zm-97.986-2.763h18.933v-24.73a16.883 16.883 0 0 0 -14.137 11.148zm61.657 16.2h-29.232v6.112a2.253 2.253 0 0 0 2.25 2.25h24.732a2.253 2.253 0 0 0 2.25-2.25zm9.991-43.6a46.384 46.384 0 0 0 -24.607-41.076 46.386 46.386 0 0 0 -24.608 41.076v28.591l9.098 11.509h31.02l9.1-11.507zm22.434 27.4-4.8-13.584a16.883 16.883 0 0 0 -14.133-11.146v24.73zm-65.4-6.952h36.716a1.749 1.749 0 0 1 1.75 1.752v4.221a1.747 1.747 0 0 1 -.377 1.085l-5.873 7.429a1.751 1.751 0 0 1 -1.373.665h-24.968a1.751 1.751 0 0 1 -1.373-.665l-5.874-7.435a1.753 1.753 0 0 1 -.377-1.085v-4.215a1.75 1.75 0 0 1 1.75-1.75zm1.75 5.36 4.972 6.29h23.274l4.97-6.288v-1.86h-33.215z" fill="url(#a)"/></svg>
