<?xml version="1.0" encoding="UTF-8"?>
<svg xmlns="http://www.w3.org/2000/svg" xmlns:xlink="http://www.w3.org/1999/xlink" width="512" height="512" viewBox="0 0 128 128"><defs><linearGradient id="a" x1="115.392" y1="117.089" x2="9.161" y2="10.858" gradientUnits="userSpaceOnUse"><stop offset="0" stop-color="#f77c90"/><stop offset="1" stop-color="#8cc9fe"/></linearGradient></defs><path d="M114.794,72.3V24.605a5.757,5.757,0,0,0-5.75-5.75h-2.022v-4.23a5.757,5.757,0,0,0-5.75-5.75H94.9a5.757,5.757,0,0,0-5.75,5.75v4.23H79.9v-4.23a5.757,5.757,0,0,0-5.75-5.75H67.772a5.757,5.757,0,0,0-5.75,5.75v4.23h-9.25v-4.23a5.757,5.757,0,0,0-5.75-5.75H40.647a5.757,5.757,0,0,0-5.75,5.75v4.23h-9.25v-4.23a5.757,5.757,0,0,0-5.75-5.75H13.522a5.757,5.757,0,0,0-5.75,5.75v4.23H5.75A5.757,5.757,0,0,0,0,24.605V95.791a5.757,5.757,0,0,0,5.75,5.75H79.51A24.844,24.844,0,0,0,103.2,119.009a1.75,1.75,0,0,0,0-3.5A21.327,21.327,0,0,1,82.4,98.746a21.683,21.683,0,0,1-.5-4.536,21.3,21.3,0,1,1,35.546,15.832,1.75,1.75,0,0,0,2.342,2.6,24.789,24.789,0,0,0-5-40.345ZM92.647,14.625a2.252,2.252,0,0,1,2.25-2.25h6.375a2.252,2.252,0,0,1,2.25,2.25v4.23H92.647Zm-27.125,0a2.252,2.252,0,0,1,2.25-2.25h6.375a2.252,2.252,0,0,1,2.25,2.25v4.23H65.522Zm-27.125,0a2.252,2.252,0,0,1,2.25-2.25h6.375a2.252,2.252,0,0,1,2.25,2.25v4.23H38.4Zm-27.125,0a2.252,2.252,0,0,1,2.25-2.25H19.9a2.252,2.252,0,0,1,2.25,2.25v4.23H11.272ZM78.4,94.21a26.905,26.905,0,0,0,.3,3.831H5.75a2.252,2.252,0,0,1-2.25-2.25V39.741H13.625a1.75,1.75,0,0,0,0-3.5H3.5V24.605a2.252,2.252,0,0,1,2.25-2.25H109.044a2.252,2.252,0,0,1,2.25,2.25V36.241H41.563a1.75,1.75,0,0,0,0,3.5h69.731V70.764a25.435,25.435,0,0,0-8.092-1.352A24.827,24.827,0,0,0,78.4,94.21ZM24.063,37.991a1.75,1.75,0,0,1,1.75-1.75h3.562a1.75,1.75,0,0,1,0,3.5H25.813A1.749,1.749,0,0,1,24.063,37.991Zm42.9,7.384H47.832a1.75,1.75,0,0,0-1.75,1.75V64.8a1.75,1.75,0,0,0,1.75,1.75H66.963a1.751,1.751,0,0,0,1.75-1.75V47.125A1.751,1.751,0,0,0,66.963,45.375Zm-1.75,17.671H49.582V48.875H65.213ZM36.963,45.375H17.832a1.75,1.75,0,0,0-1.75,1.75V64.8a1.75,1.75,0,0,0,1.75,1.75H36.963a1.751,1.751,0,0,0,1.75-1.75V47.125A1.751,1.751,0,0,0,36.963,45.375Zm-1.75,17.671H19.582V48.875H35.213Zm31.75,8.191H47.832a1.749,1.749,0,0,0-1.75,1.75V90.658a1.75,1.75,0,0,0,1.75,1.75H66.963a1.751,1.751,0,0,0,1.75-1.75V72.987A1.75,1.75,0,0,0,66.963,71.237Zm-1.75,17.671H49.582V74.737H65.213ZM36.963,71.237H17.832a1.749,1.749,0,0,0-1.75,1.75V90.658a1.75,1.75,0,0,0,1.75,1.75H36.963a1.751,1.751,0,0,0,1.75-1.75V72.987A1.75,1.75,0,0,0,36.963,71.237Zm-1.75,17.671H19.582V74.737H35.213Zm61.75-43.533H77.832a1.75,1.75,0,0,0-1.75,1.75V64.8a1.75,1.75,0,0,0,1.75,1.75H96.963a1.751,1.751,0,0,0,1.75-1.75V47.125A1.751,1.751,0,0,0,96.963,45.375Zm-1.75,17.671H79.582V48.875H95.213ZM111.466,100a1.749,1.749,0,1,1-2.474,2.474l-7.028-7.027a1.75,1.75,0,0,1-.512-1.238V79.1a1.75,1.75,0,0,1,3.5,0V93.485Z" fill="url(#a)"/></svg>
