<?xml version="1.0" encoding="UTF-8"?>
<svg xmlns="http://www.w3.org/2000/svg" xmlns:xlink="http://www.w3.org/1999/xlink" width="512" height="512" viewBox="0 0 128 128"><defs><linearGradient id="a" x1="117.67" y1="120.287" x2="10.33" y2="12.948" gradientUnits="userSpaceOnUse"><stop offset="0" stop-color="#f77c90"/><stop offset="1" stop-color="#8cc9fe"/></linearGradient></defs><path d="M111.75,70.142V61.125a1.75,1.75,0,0,0-3.5,0V68.5a32.009,32.009,0,0,0-8.5-1.921V23.439A1.75,1.75,0,0,0,98,21.689H91.6L104,4.716l12.405,16.973H110a1.75,1.75,0,0,0-1.75,1.75V40.781a1.75,1.75,0,1,0,3.5,0V25.189h8.1a1.751,1.751,0,0,0,1.413-2.783L105.413.717a1.815,1.815,0,0,0-2.826,0L86.735,22.406a1.751,1.751,0,0,0,1.413,2.783h8.1v35.92a37.011,37.011,0,0,0-24.5-17.945V25.189h8.1a1.751,1.751,0,0,0,1.413-2.783L65.413.717a1.815,1.815,0,0,0-2.826,0L46.735,22.406a1.751,1.751,0,0,0,1.413,2.783h8.1V43.164a37.011,37.011,0,0,0-24.5,17.945V25.189h8.1a1.751,1.751,0,0,0,1.413-2.783L25.413.717a1.815,1.815,0,0,0-2.826,0L6.735,22.406a1.751,1.751,0,0,0,1.413,2.783h8.1V70.142A30.745,30.745,0,0,0,30.766,128H97.234A30.745,30.745,0,0,0,111.75,70.142Zm-52-27.569V23.439A1.75,1.75,0,0,0,58,21.689H51.6L64,4.716,76.405,21.689H70a1.75,1.75,0,0,0-1.75,1.75V42.573A38.589,38.589,0,0,0,59.75,42.573ZM19.75,68.5V23.439A1.75,1.75,0,0,0,18,21.689H11.6L24,4.716,36.405,21.689H30a1.75,1.75,0,0,0-1.75,1.75V66.583A32.009,32.009,0,0,0,19.75,68.5Zm77.484,56H30.766a27.261,27.261,0,0,1-7.039-53.6,28.194,28.194,0,0,1,6.772-.926,1.751,1.751,0,0,0,1.644-1.2A33.538,33.538,0,0,1,58.5,46.285a33.9,33.9,0,0,1,11.01,0A33.538,33.538,0,0,1,95.857,68.779a1.751,1.751,0,0,0,1.643,1.2,28.2,28.2,0,0,1,6.773.926,27.261,27.261,0,0,1-7.039,53.6ZM120,97.234A22.791,22.791,0,0,1,97.234,120H30.766A22.791,22.791,0,0,1,8,97.234a1.75,1.75,0,0,1,3.5,0A19.288,19.288,0,0,0,30.766,116.5H97.234a19.263,19.263,0,0,0,.19-38.525l-5.705-.055a1.75,1.75,0,0,1-1.644-1.2l-1.806-5.412a25.586,25.586,0,0,0-48.538,0l-1.806,5.412a1.75,1.75,0,0,1-1.644,1.2l-5.7.055a19.222,19.222,0,0,0-14.754,7.142,1.75,1.75,0,0,1-2.715-2.209,22.712,22.712,0,0,1,17.436-8.433L35,74.432,36.411,70.2a29.086,29.086,0,0,1,55.178,0L93,74.432l4.457.043A22.832,22.832,0,0,1,120,97.234Zm-71.186,2.1v-3.8H41.951a1.75,1.75,0,0,1-1.75-1.75v-7.3a1.75,1.75,0,0,1,1.75-1.75h8.613a1.75,1.75,0,1,1,0,3.5H43.7v3.8h6.863a1.749,1.749,0,0,1,1.75,1.75v7.3a1.75,1.75,0,0,1-1.75,1.75H41.951a1.75,1.75,0,1,1,0-3.5Zm11.248-11.1v3.8H68.2a1.75,1.75,0,0,1,0,3.5H60.062v3.8H68.2a1.75,1.75,0,0,1,0,3.5H58.312a1.751,1.751,0,0,1-1.75-1.75v-14.6a1.751,1.751,0,0,1,1.75-1.75H68.2a1.75,1.75,0,0,1,0,3.5Zm23.987,14.6a3.754,3.754,0,0,0,3.75-3.75v-10.6a3.754,3.754,0,0,0-3.75-3.75H76.465a3.754,3.754,0,0,0-3.75,3.75v10.6a3.754,3.754,0,0,0,3.75,3.75Zm-7.834-3.75v-10.6a.251.251,0,0,1,.25-.25h7.584a.251.251,0,0,1,.25.25v10.6a.25.25,0,0,1-.25.25H76.465A.251.251,0,0,1,76.215,99.082ZM111.75,49.313v3.281a1.75,1.75,0,0,1-3.5,0V49.313a1.75,1.75,0,1,1,3.5,0Z" fill="url(#a)"/></svg>
