<?xml version="1.0" encoding="UTF-8"?>
<svg xmlns="http://www.w3.org/2000/svg" xmlns:xlink="http://www.w3.org/1999/xlink" width="512" height="512" viewBox="0 0 128 128"><defs><linearGradient id="a" x1="109.255" y1="109.255" x2="18.745" y2="18.745" gradientUnits="userSpaceOnUse"><stop offset="0" stop-color="#f77c90"/><stop offset="1" stop-color="#8cc9fe"/></linearGradient></defs><path d="M128,54V74a1.751,1.751,0,0,1-1.75,1.75h-11.3a51.7,51.7,0,0,1-6.619,15.961l8,8a1.751,1.751,0,0,1,0,2.475l-14.142,14.142a1.751,1.751,0,0,1-2.475,0l-8-8a51.7,51.7,0,0,1-15.961,6.619v11.3A1.751,1.751,0,0,1,74,128H54a1.751,1.751,0,0,1-1.75-1.75v-11.3a51.687,51.687,0,0,1-15.961-6.619l-8,8a1.751,1.751,0,0,1-2.475,0L11.674,102.184a1.751,1.751,0,0,1,0-2.475l8-8a52.238,52.238,0,0,1-4.083-7.959,1.751,1.751,0,0,1,3.241-1.324,48.668,48.668,0,0,0,4.536,8.552,1.748,1.748,0,0,1-.22,2.206l-7.759,7.76,11.667,11.667,7.759-7.759a1.749,1.749,0,0,1,2.207-.22,48.3,48.3,0,0,0,17.325,7.184,1.75,1.75,0,0,1,1.405,1.716V124.5h16.5V113.534a1.75,1.75,0,0,1,1.405-1.716,48.3,48.3,0,0,0,17.325-7.184,1.749,1.749,0,0,1,2.206.22l7.76,7.759,11.667-11.667-7.759-7.76a1.749,1.749,0,0,1-.22-2.206,48.3,48.3,0,0,0,7.184-17.325,1.75,1.75,0,0,1,1.716-1.405H124.5V55.75H113.534a1.75,1.75,0,0,1-1.716-1.405,48.3,48.3,0,0,0-7.184-17.325,1.749,1.749,0,0,1,.22-2.206l7.759-7.76L100.946,15.387l-7.76,7.759a1.75,1.75,0,0,1-2.206.22,48.3,48.3,0,0,0-17.325-7.184,1.75,1.75,0,0,1-1.405-1.716V3.5H55.75V14.466a1.75,1.75,0,0,1-1.405,1.716A48.3,48.3,0,0,0,37.02,23.366a1.749,1.749,0,0,1-2.207-.22l-7.759-7.759L15.387,27.054l7.759,7.76a1.749,1.749,0,0,1,.22,2.206,48.3,48.3,0,0,0-7.184,17.325,1.75,1.75,0,0,1-1.716,1.405H3.5v16.5H14.466a1.75,1.75,0,1,1,0,3.5H1.75A1.751,1.751,0,0,1,0,74V54a1.751,1.751,0,0,1,1.75-1.75h11.3a51.7,51.7,0,0,1,6.619-15.961l-8-8a1.751,1.751,0,0,1,0-2.475L25.816,11.674a1.751,1.751,0,0,1,2.475,0l8,8A51.687,51.687,0,0,1,52.25,13.053V1.75A1.751,1.751,0,0,1,54,0H74a1.751,1.751,0,0,1,1.75,1.75v11.3a51.7,51.7,0,0,1,15.961,6.619l8-8a1.751,1.751,0,0,1,2.475,0l14.142,14.142a1.751,1.751,0,0,1,0,2.475l-8,8a51.7,51.7,0,0,1,6.619,15.961h11.3A1.751,1.751,0,0,1,128,54ZM99.648,52.56A1.75,1.75,0,0,0,101.29,50.2a39.859,39.859,0,0,0-1.769-4.063A1.75,1.75,0,0,0,96.4,47.713a36.475,36.475,0,0,1,1.612,3.7A1.751,1.751,0,0,0,99.648,52.56ZM91.807,38.042a1.752,1.752,0,0,0-.029-2.476A39.751,39.751,0,1,0,103.75,64a1.75,1.75,0,0,0-3.5,0A36.25,36.25,0,1,1,89.332,38.07,1.752,1.752,0,0,0,91.807,38.042ZM52.67,65.493l2.2,5.114a1.75,1.75,0,1,1-3.215,1.383L49.9,67.918H44.067L42.315,71.99A1.749,1.749,0,1,1,39.1,70.607l2.2-5.117,0-.006,4.074-9.474a1.75,1.75,0,0,1,3.215,0l4.072,9.471ZM48.4,64.418l-1.414-3.287-1.413,3.287Zm18.695-9.466a5.756,5.756,0,0,1,5.75,5.75v6.6a5.756,5.756,0,0,1-5.75,5.75H60.935a1.75,1.75,0,0,1-1.75-1.75V56.7a1.75,1.75,0,0,1,1.75-1.75Zm0,3.5H62.685v11.1h4.409a2.252,2.252,0,0,0,2.25-2.25V60.7A2.252,2.252,0,0,0,67.094,58.452Zm20.2,0a1.75,1.75,0,0,0,0-3.5H78.678a1.75,1.75,0,0,0-1.75,1.75V64a1.751,1.751,0,0,0,1.75,1.75h6.864v3.8H78.678a1.75,1.75,0,0,0,0,3.5h8.614a1.75,1.75,0,0,0,1.75-1.75V64a1.751,1.751,0,0,0-1.75-1.75H80.428v-3.8Z" fill="url(#a)"/></svg>
