<svg height="512" viewBox="0 0 128 128" width="512" xmlns="http://www.w3.org/2000/svg" xmlns:xlink="http://www.w3.org/1999/xlink"><linearGradient id="a" gradientUnits="userSpaceOnUse" x1="112.499" x2=".95" y1="119.23" y2="7.681"><stop offset="0" stop-color="#f77c90"/><stop offset="1" stop-color="#8cc9fe"/></linearGradient><path d="m85.8 0h-74.791a5.756 5.756 0 0 0 -5.75 5.75v116.5a5.756 5.756 0 0 0 5.75 5.75h74.791a5.757 5.757 0 0 0 5.75-5.75v-116.5a5.757 5.757 0 0 0 -5.75-5.75zm2.25 122.25a2.253 2.253 0 0 1 -2.25 2.25h-74.791a2.253 2.253 0 0 1 -2.25-2.25v-116.5a2.253 2.253 0 0 1 2.25-2.25h74.791a2.253 2.253 0 0 1 2.25 2.25zm15.19-44.75v-3.964a1.75 1.75 0 0 1 3.5 0v3.964a1.75 1.75 0 0 1 -3.5 0zm16.768-58.443v-2.052a7.018 7.018 0 1 0 -14.035 0v2.051a3.745 3.745 0 0 0 -2.733 3.592v41.352a1.75 1.75 0 0 0 3.5 0v-4.918h12.5v33.183h-12.5v-5.226a1.75 1.75 0 0 0 -3.5 0v12.679a1.748 1.748 0 0 0 .318 1l4 5.7a1.749 1.749 0 0 0 1.432.745h2.25v9.092a1.75 1.75 0 0 0 3.5 0v-9.092h2.25a1.752 1.752 0 0 0 1.433-.745l4-5.7a1.754 1.754 0 0 0 .317-1v-77.07a3.743 3.743 0 0 0 -2.731-3.591zm-10.535-2.052a3.518 3.518 0 1 1 7.035 0v1.895h-7.035zm-2.733 38.577v-32.934a.251.251 0 0 1 .25-.25h12a.251.251 0 0 1 .25.25v32.934zm12.5 43.583-3.16 4.506h-6.18l-3.16-4.506v-3.4h12.5zm-37.363-87.518v33.98a1.749 1.749 0 0 1 -1.75 1.75h-42.877a1.75 1.75 0 0 1 0-3.5h41.127v-30.477h-59.945v30.48h7.943a1.75 1.75 0 1 1 0 3.5h-9.693a1.75 1.75 0 0 1 -1.75-1.75v-33.983a1.751 1.751 0 0 1 1.75-1.75h63.445a1.75 1.75 0 0 1 1.75 1.75zm0 47.2a1.749 1.749 0 0 1 -1.75 1.75h-63.445a1.75 1.75 0 1 1 0-3.5h63.445a1.749 1.749 0 0 1 1.75 1.751zm0 13.22a1.749 1.749 0 0 1 -1.75 1.75h-63.445a1.75 1.75 0 1 1 0-3.5h63.445a1.75 1.75 0 0 1 1.75 1.751zm0 13.221a1.749 1.749 0 0 1 -1.75 1.75h-63.445a1.75 1.75 0 1 1 0-3.5h63.445a1.749 1.749 0 0 1 1.75 1.751zm0 13.221a1.749 1.749 0 0 1 -1.75 1.75h-63.445a1.75 1.75 0 1 1 0-3.5h63.445a1.749 1.749 0 0 1 1.75 1.751zm-37.106 16.181a1.75 1.75 0 0 1 -3.485.226 17.346 17.346 0 0 0 -2.284.691c-1.982.7-4.031 1.417-5.527.357a2.777 2.777 0 0 1 -1.1-1.665c-.337.215-.7.458-.986.655-1.743 1.18-3.687 2.523-5.7 2.465-2.56-.068-3.989-2.616-4.781-5.245l-2.68 5a1.75 1.75 0 1 1 -3.085-1.653l5.042-9.415a1.75 1.75 0 0 1 3.286.682c.327 3.908 1.634 7.109 2.313 7.128h.026c.867 0 2.522-1.121 3.621-1.865 1.841-1.247 3.431-2.324 4.973-1.506a2.717 2.717 0 0 1 1.356 2.4 19.621 19.621 0 0 0 2.083-.647c2.032-.716 4.133-1.453 5.68-.359a3.146 3.146 0 0 1 1.248 2.751z" fill="url(#a)"/></svg>
