<svg height="512" viewBox="0 0 128 128" width="512" xmlns="http://www.w3.org/2000/svg" xmlns:xlink="http://www.w3.org/1999/xlink"><linearGradient id="a" gradientUnits="userSpaceOnUse" x1="114.818" x2="13.182" y1="114.818" y2="13.182"><stop offset="0" stop-color="#f77c90"/><stop offset="1" stop-color="#8cc9fe"/></linearGradient><path d="m101.507 12.375v-6.625a2.252 2.252 0 0 0 -2.25-2.25h-70.514a2.252 2.252 0 0 0 -2.25 2.25v116.5a2.252 2.252 0 0 0 2.25 2.25h70.514a2.252 2.252 0 0 0 2.25-2.25v-96a1.75 1.75 0 0 1 3.5 0v96a5.757 5.757 0 0 1 -5.75 5.75h-70.514a5.757 5.757 0 0 1 -5.75-5.75v-116.5a5.757 5.757 0 0 1 5.75-5.75h70.514a5.757 5.757 0 0 1 5.75 5.75v6.625a1.75 1.75 0 0 1 -3.5 0zm-47.067 91.625h6.5a1.75 1.75 0 0 0 0-3.5h-6.5a1.75 1.75 0 0 0 0 3.5zm19.56 0h19.257a3.754 3.754 0 0 0 3.75-3.75v-88.5a3.754 3.754 0 0 0 -3.75-3.75h-13.748a3.767 3.767 0 0 0 -3.609 2.72l-1.171 4.1a.253.253 0 0 1 -.241.182h-20.979a.253.253 0 0 1 -.241-.182l-1.168-4.1a3.767 3.767 0 0 0 -3.609-2.72h-13.748a3.754 3.754 0 0 0 -3.75 3.75v88.5a3.754 3.754 0 0 0 3.75 3.75h6.632a1.75 1.75 0 0 0 0-3.5h-6.632a.25.25 0 0 1 -.25-.25v-88.5a.25.25 0 0 1 .25-.25h13.748a.253.253 0 0 1 .241.182l1.171 4.1a3.767 3.767 0 0 0 3.606 2.72h20.982a3.767 3.767 0 0 0 3.609-2.722l1.171-4.1a.253.253 0 0 1 .241-.182h13.745a.25.25 0 0 1 .25.25v88.5a.25.25 0 0 1 -.25.25h-19.257a1.75 1.75 0 0 0 0 3.5zm-16.75 10.25a6.75 6.75 0 1 1 6.75 6.75 6.758 6.758 0 0 1 -6.75-6.75zm3.5 0a3.25 3.25 0 1 0 3.25-3.25 3.254 3.254 0 0 0 -3.25 3.25zm-7.487-49.2a1.751 1.751 0 0 1 -1.608-1.059l-1.755-4.073h-5.833l-1.752 4.072a1.749 1.749 0 1 1 -3.215-1.383l2.2-5.117v-.006l4.074-9.474a1.75 1.75 0 0 1 3.215 0l4.072 9.471.005.012 2.2 5.114a1.751 1.751 0 0 1 -1.607 2.442zm-4.863-8.632-1.414-3.287-1.413 3.287zm18.695 8.63h-6.16a1.75 1.75 0 0 1 -1.75-1.75v-14.598a1.75 1.75 0 0 1 1.75-1.75h6.159a5.756 5.756 0 0 1 5.75 5.75v6.6a5.756 5.756 0 0 1 -5.75 5.748zm2.249-12.348a2.252 2.252 0 0 0 -2.25-2.25h-4.409v11.1h4.409a2.252 2.252 0 0 0 2.25-2.25zm9.334 8.846a1.75 1.75 0 0 0 0 3.5h8.614a1.75 1.75 0 0 0 1.75-1.75v-7.296a1.751 1.751 0 0 0 -1.75-1.75h-6.864v-3.8h6.864a1.75 1.75 0 0 0 0-3.5h-8.614a1.75 1.75 0 0 0 -1.75 1.75v7.3a1.751 1.751 0 0 0 1.75 1.75h6.864v3.8z" fill="url(#a)"/></svg>
