<?xml version="1.0" encoding="UTF-8"?>
<svg xmlns="http://www.w3.org/2000/svg" xmlns:xlink="http://www.w3.org/1999/xlink" width="512" height="512" viewBox="0 0 128 128"><defs><linearGradient id="a" x1="114.818" y1="114.818" x2="13.182" y2="13.182" gradientUnits="userSpaceOnUse"><stop offset="0" stop-color="#f77c90"/><stop offset="1" stop-color="#8cc9fe"/></linearGradient></defs><path d="M57.25,114.25A6.75,6.75,0,1,0,64,107.5,6.758,6.758,0,0,0,57.25,114.25ZM64,111a3.25,3.25,0,1,1-3.25,3.25A3.254,3.254,0,0,1,64,111Zm37.5-75.706a5.66,5.66,0,0,0-4.639-2.419,1.75,1.75,0,0,0-1.642,1.146L92.945,40.2H85.536a1.749,1.749,0,0,0-1.75,1.75V54.063a1.75,1.75,0,0,0,1.75,1.75h8.63a1.74,1.74,0,0,0,1.355-.655l.638.394a1.743,1.743,0,0,0,.918.261h10.092a3.549,3.549,0,0,0,3.545-3.545V43.741a3.549,3.549,0,0,0-3.545-3.545h-4.9A5.665,5.665,0,0,0,101.5,35.294ZM92.416,52.313h-5.13V43.7h5.13v8.617Zm14.8-8.572-.045,8.572h-9.6l-1.657-1.022V42.258l2.053-5.579a2.16,2.16,0,0,1,.658.618,2.131,2.131,0,0,1,.256,1.979l-.76,2.067A1.75,1.75,0,0,0,99.766,43.7Zm14.223-7.6a1.75,1.75,0,0,0,1.75-1.75v-7.58a1.749,1.749,0,0,0-1.75-1.75H105.008V5.75A5.756,5.756,0,0,0,99.258,0H28.742a5.756,5.756,0,0,0-5.75,5.75V45.078H6.562a1.75,1.75,0,0,0-1.75,1.75V81.891a1.751,1.751,0,0,0,1.75,1.75H20.677l2.315,1.321V122.25a5.756,5.756,0,0,0,5.75,5.75H99.258a5.756,5.756,0,0,0,5.75-5.75v-57.3l2.315-1.322h14.114a1.749,1.749,0,0,0,1.75-1.75V45.75a1.75,1.75,0,0,0-3.5,0V60.125H106.859a1.746,1.746,0,0,0-.867.23l-16.6,9.475V61.875a1.75,1.75,0,0,0-1.75-1.75H74.812V28.563h44.875v5.83A1.751,1.751,0,0,0,121.437,36.143Zm-100.3,44H8.312V48.578H53.187V80.141H40.359a1.75,1.75,0,0,0-1.75,1.75v7.955l-16.6-9.475A1.746,1.746,0,0,0,21.141,80.141ZM73.062,25.063a1.75,1.75,0,0,0-1.75,1.75V61.875a1.75,1.75,0,0,0,1.75,1.75H85.891v9.219a1.763,1.763,0,0,0,2.617,1.519l5-2.853v28.74a.251.251,0,0,1-.25.25H64a1.75,1.75,0,0,0,0,3.5H93.258a3.755,3.755,0,0,0,3.75-3.75V69.513l4.5-2.569V122.25a2.253,2.253,0,0,1-2.25,2.25H28.742a2.253,2.253,0,0,1-2.25-2.25V86.961l4.5,2.568V100.25a3.755,3.755,0,0,0,3.75,3.75h7.383a1.75,1.75,0,0,0,0-3.5H34.742a.25.25,0,0,1-.25-.25V91.526l5,2.853a1.764,1.764,0,0,0,2.617-1.52V83.641H54.937a1.75,1.75,0,0,0,1.75-1.75V46.828a1.749,1.749,0,0,0-1.75-1.75H34.492V11.75a.25.25,0,0,1,.25-.25H48.491a.249.249,0,0,1,.24.182l1.172,4.1a3.765,3.765,0,0,0,3.606,2.72H74.491A3.765,3.765,0,0,0,78.1,15.781l1.172-4.1a.249.249,0,0,1,.24-.181H93.258a.251.251,0,0,1,.25.25V25.063Zm23.946,0V11.75A3.755,3.755,0,0,0,93.258,8H79.509A3.765,3.765,0,0,0,75.9,10.719l-1.172,4.1a.25.25,0,0,1-.24.181H53.509a.248.248,0,0,1-.24-.182L52.1,10.72A3.765,3.765,0,0,0,48.491,8H34.742a3.755,3.755,0,0,0-3.75,3.75V45.078h-4.5V5.75a2.253,2.253,0,0,1,2.25-2.25H99.258a2.253,2.253,0,0,1,2.25,2.25V25.063ZM40.649,55.357a7.887,7.887,0,0,0-9.9-1.009,7.875,7.875,0,0,0-9.9,12.146l8.662,8.662a1.748,1.748,0,0,0,2.474,0l8.662-8.662A7.883,7.883,0,0,0,40.649,55.357ZM38.175,64.02,30.75,71.444,23.325,64.02a4.376,4.376,0,0,1,6.188-6.188,1.748,1.748,0,0,0,2.474,0,4.376,4.376,0,0,1,6.188,6.188Zm18.512,38.23a1.749,1.749,0,0,1-1.75,1.75h-3.75a1.75,1.75,0,0,1,0-3.5h3.75A1.749,1.749,0,0,1,56.687,102.25Z" fill="url(#a)"/></svg>
