<svg height="512" viewBox="0 0 128 128" width="512" xmlns="http://www.w3.org/2000/svg" xmlns:xlink="http://www.w3.org/1999/xlink"><linearGradient id="a" gradientUnits="userSpaceOnUse" x1="125.162" x2="19.394" y1="129.81" y2="24.042"><stop offset="0" stop-color="#f77c90"/><stop offset="1" stop-color="#8cc9fe"/></linearGradient><path d="m126.25 115.046h-2.609v-77.628a1.75 1.75 0 0 0 -1.75-1.75h-15.782a1.75 1.75 0 0 0 -1.75 1.75v77.628h-5.718v-67.628a1.75 1.75 0 0 0 -1.75-1.75h-15.782a1.75 1.75 0 0 0 -1.75 1.75v67.628h-5.718v-37.628a1.75 1.75 0 0 0 -1.75-1.75h-15.782a1.75 1.75 0 0 0 -1.75 1.75v37.628h-5.718v-19.046a1.75 1.75 0 0 0 -3.5 0v19.046h-12.282v-55.878h12.282v6.832a1.75 1.75 0 0 0 3.5 0v-8.582a1.75 1.75 0 0 0 -1.75-1.75h-15.782a1.75 1.75 0 0 0 -1.75 1.75v57.628h-5.718v-17.628a1.75 1.75 0 0 0 -1.75-1.75h-15.782a1.75 1.75 0 0 0 -1.75 1.75v17.628h-2.609a1.749 1.749 0 0 0 -1.75 1.754v9.451a1.749 1.749 0 0 0 1.75 1.749h124.5a1.749 1.749 0 0 0 1.75-1.75v-9.45a1.749 1.749 0 0 0 -1.75-1.754zm-18.391-75.878h12.282v75.878h-12.282zm-25 10h12.282v65.878h-12.282zm-25 30h12.282v35.878h-12.282zm-50 20h12.282v15.878h-12.282zm116.641 25.332h-121v-5.951h121zm-75.859-46.875v6.75a1.75 1.75 0 0 1 -3.5 0v-6.75a1.75 1.75 0 0 1 3.5 0zm-34.814-27.591a8.451 8.451 0 0 0 7.086-13.075l12.121-12.121a8.431 8.431 0 0 0 9.538-.027l14.363 14.363a8.461 8.461 0 1 0 15.074 1.181l36.425-25.7a8.387 8.387 0 0 0 4.454 2.174 1.713 1.713 0 0 0 .266.021 1.75 1.75 0 0 0 .263-3.48 4.963 4.963 0 1 1 5.719-4.906 1.75 1.75 0 1 0 3.5 0 8.463 8.463 0 1 0 -16.926 0 8.334 8.334 0 0 0 .7 3.333l-36.364 25.661a8.422 8.422 0 0 0 -10.723-.846l-14.342-14.341a8.463 8.463 0 1 0 -14.368.039l-12.175 12.175a8.459 8.459 0 1 0 -4.611 15.549zm55.309-6.5a4.963 4.963 0 1 1 -4.963-4.963 4.969 4.969 0 0 1 4.963 4.966zm-31.351-30.657a4.963 4.963 0 1 1 -4.963 4.963 4.969 4.969 0 0 1 4.963-4.963zm-23.958 23.731a4.963 4.963 0 1 1 -4.963 4.963 4.969 4.969 0 0 1 4.963-4.963z" fill="url(#a)"/></svg>
