<?xml version="1.0" encoding="UTF-8"?>
<svg xmlns="http://www.w3.org/2000/svg" xmlns:xlink="http://www.w3.org/1999/xlink" width="512" height="512" viewBox="0 0 128 128"><defs><linearGradient id="a" x1="120.118" y1="105.379" x2="7.882" y2="-6.857" gradientUnits="userSpaceOnUse"><stop offset="0" stop-color="#f77c90"/><stop offset="1" stop-color="#8cc9fe"/></linearGradient></defs><path d="M122.77,64v2.842a1.75,1.75,0,0,1-3.5,0V64a1.75,1.75,0,0,1,3.5,0Zm0-10.059a1.75,1.75,0,0,1-3.5,0V13.348H8.73V85.174H119.27V76.9a1.75,1.75,0,0,1,3.5,0v8.276h3.48a1.75,1.75,0,0,1,1.75,1.75v9.848a1.751,1.751,0,0,1-1.75,1.75H69.75v7.238h5.94a12.764,12.764,0,0,1,12.75,12.75v7.737A1.749,1.749,0,0,1,86.69,128h-8a1.75,1.75,0,0,1-1.75-1.75V118.51a1.25,1.25,0,0,0-1.25-1.25H69.75v8.987A1.75,1.75,0,0,1,68,128H60a1.75,1.75,0,0,1-1.75-1.75V117.26H52.31a1.25,1.25,0,0,0-1.25,1.25v7.737A1.75,1.75,0,0,1,49.31,128h-8a1.749,1.749,0,0,1-1.75-1.75V118.51a12.764,12.764,0,0,1,12.75-12.75h5.94V98.522H1.75A1.751,1.751,0,0,1,0,96.772V86.924a1.75,1.75,0,0,1,1.75-1.75H5.23V13.348H1.75A1.75,1.75,0,0,1,0,11.6V1.75A1.75,1.75,0,0,1,1.75,0h124.5A1.75,1.75,0,0,1,128,1.75V11.6a1.75,1.75,0,0,1-1.75,1.75h-3.48ZM66.25,107.51V98.522h-4.5v8.988A1.75,1.75,0,0,1,60,109.26H52.31a9.26,9.26,0,0,0-9.25,9.25V124.5h4.5V118.51a4.755,4.755,0,0,1,4.75-4.75H60a1.75,1.75,0,0,1,1.75,1.75V124.5h4.5V115.51A1.75,1.75,0,0,1,68,113.76h7.69a4.755,4.755,0,0,1,4.75,4.75V124.5h4.5V118.51a9.26,9.26,0,0,0-9.25-9.25H68A1.75,1.75,0,0,1,66.25,107.51ZM3.5,88.674v6.348h121V88.674Zm121-78.826V3.5H3.5V9.848ZM80.8,63.263v7.583h.984a1.749,1.749,0,0,1,1.75,1.75v6.328a1.749,1.749,0,0,1-1.75,1.75H48.105a1.749,1.749,0,0,1-1.75-1.75V72.6a1.749,1.749,0,0,1,1.75-1.75h.455v-5.16a12.24,12.24,0,0,1,4.576-9.57l6.646-5.362a1.75,1.75,0,0,1,.918-3.24h3.717a1.75,1.75,0,0,1,1.1,3.112L55.333,58.841a8.756,8.756,0,0,0-3.273,6.845v5.16H77.3V39.64A10.522,10.522,0,0,0,66.79,29.129a1.749,1.749,0,0,1-1.75-1.75V24.871a3.517,3.517,0,0,0-.528-1.846v0a3.55,3.55,0,0,0-1.245-1.209v5.433a1.75,1.75,0,0,1-.669,1.377L46.391,41.346a2.52,2.52,0,0,0-.15,3.837l2.3,2.112L51.321,46a1.75,1.75,0,0,1,1.48,3.172l-3.843,1.794a1.745,1.745,0,0,1-1.924-.3l-3.161-2.905a6.018,6.018,0,0,1,.357-9.167L59.766,26.4V19.6a1.75,1.75,0,0,1,1.75-1.75,7.006,7.006,0,0,1,5.376,2.513A19.3,19.3,0,0,1,86.073,39.64V61.513a1.75,1.75,0,0,1-1.75,1.75Zm-.766,11.083H49.855v2.828H80.034ZM80.8,39.64V59.763h1.773V39.64a15.806,15.806,0,0,0-14.1-15.695,14.233,14.233,0,0,1,.063,1.792A14.034,14.034,0,0,1,80.8,39.64ZM60.923,37.96h1.45a1.75,1.75,0,1,0,0-3.5h-1.45a1.75,1.75,0,0,0,0,3.5Z" fill="url(#a)"/></svg>
