<?xml version="1.0" encoding="UTF-8"?>
<svg xmlns="http://www.w3.org/2000/svg" xmlns:xlink="http://www.w3.org/1999/xlink" width="512" height="512" viewBox="0 0 128 128"><defs><linearGradient id="a" x1="109.234" y1="109.234" x2="18.766" y2="18.766" gradientUnits="userSpaceOnUse"><stop offset="0" stop-color="#f77c90"/><stop offset="1" stop-color="#8cc9fe"/></linearGradient></defs><path d="M64,0a64,64,0,1,0,64,64A64.072,64.072,0,0,0,64,0Zm0,124.5A60.5,60.5,0,1,1,124.5,64,60.569,60.569,0,0,1,64,124.5Zm55.27-56.182a1.75,1.75,0,0,1,.444,1.35,56.141,56.141,0,0,1-50.04,50.04,1.748,1.748,0,0,1-1.926-1.741v-3.65a3.745,3.745,0,0,0-7.49,0v3.651a1.75,1.75,0,0,1-1.75,1.75,1.729,1.729,0,0,1-.176-.009A56.143,56.143,0,0,1,8.286,69.674a1.751,1.751,0,0,1,1.741-1.926h3.657a3.745,3.745,0,0,0,0-7.49H10.032a1.751,1.751,0,0,1-1.741-1.926A56.144,56.144,0,0,1,58.326,8.286a1.749,1.749,0,0,1,1.926,1.741v3.656a3.745,3.745,0,0,0,7.49,0V10.032a1.749,1.749,0,0,1,1.926-1.741A55.8,55.8,0,0,1,79.1,10.075a1.75,1.75,0,0,1-.945,3.37A52.339,52.339,0,0,0,71.242,12v1.679a7.245,7.245,0,0,1-14.49,0V12A52.654,52.654,0,0,0,12,56.758h1.68a7.245,7.245,0,0,1,0,14.49H12A52.652,52.652,0,0,0,56.758,116v-1.679a7.245,7.245,0,0,1,14.49,0V116A52.651,52.651,0,0,0,116,71.242h-1.685a7.245,7.245,0,0,1,0-14.49H116A52.911,52.911,0,0,0,86.78,16.71,1.75,1.75,0,0,1,88.3,13.559a56.4,56.4,0,0,1,31.41,44.767,1.752,1.752,0,0,1-1.741,1.926h-3.657a3.745,3.745,0,0,0,0,7.49h3.657A1.749,1.749,0,0,1,119.27,68.318ZM79.3,46.739A15.3,15.3,0,1,0,64,62.035,15.313,15.313,0,0,0,79.3,46.739Zm-27.092,0A11.8,11.8,0,1,1,64,58.535,11.809,11.809,0,0,1,52.2,46.739ZM64,93.052a1.75,1.75,0,0,1,0,3.5H58.875a1.75,1.75,0,0,1,0-3.5Zm20.616,0V83.021a12.263,12.263,0,0,0-12.25-12.25H55.634a12.263,12.263,0,0,0-12.25,12.25V93.052H48.25a1.75,1.75,0,1,1,0,3.5H41.634a1.749,1.749,0,0,1-1.75-1.75V83.021a15.767,15.767,0,0,1,15.75-15.75H72.366a15.767,15.767,0,0,1,15.75,15.75V94.8a1.749,1.749,0,0,1-1.75,1.75H74.625a1.75,1.75,0,0,1,0-3.5Z" fill="url(#a)"/></svg>
