<?xml version="1.0" encoding="UTF-8"?>
<svg xmlns="http://www.w3.org/2000/svg" xmlns:xlink="http://www.w3.org/1999/xlink" width="512" height="512" viewBox="0 0 128 128"><defs><linearGradient id="a" x1="113.485" y1="111.737" x2="14.515" y2="12.766" gradientUnits="userSpaceOnUse"><stop offset="0" stop-color="#f77c90"/><stop offset="1" stop-color="#8cc9fe"/></linearGradient></defs><path d="M127.074,26.462,87.225,5.209A1.745,1.745,0,0,0,86.4,5H41.6a1.745,1.745,0,0,0-.824.206L.926,26.462a1.75,1.75,0,0,0-.8,2.188L10.131,53.9a1.748,1.748,0,0,0,2.082,1.045L24.75,51.569v69.678A1.75,1.75,0,0,0,26.5,123h75a1.75,1.75,0,0,0,1.75-1.75V51.569l12.537,3.376a1.748,1.748,0,0,0,2.082-1.045l10.008-25.25A1.75,1.75,0,0,0,127.074,26.462ZM115.19,51.16,101.955,47.6a1.75,1.75,0,0,0-2.2,1.689V119.5H28.25V49.285a1.751,1.751,0,0,0-2.2-1.689L12.81,51.16,3.953,28.815,42.037,8.5h6.15v8.869a10.762,10.762,0,0,0,10.75,10.75H69.062a1.75,1.75,0,0,0,0-3.5H58.937a7.258,7.258,0,0,1-7.25-7.25V8.5H76.312v8.869a7.182,7.182,0,0,1-.656,3.021,1.75,1.75,0,0,0,3.18,1.46,10.656,10.656,0,0,0,.976-4.481V8.5h6.151l38.084,20.312ZM60.935,71.9a1.75,1.75,0,0,1-1.75,1.75H56.512a1.75,1.75,0,1,1,0-3.5h2.673A1.749,1.749,0,0,1,60.935,71.9ZM35,36.339H93a1.75,1.75,0,0,1,1.75,1.75V71.9A1.751,1.751,0,0,1,93,73.647H70.125a1.75,1.75,0,0,1,0-3.5H91.25V39.839H36.75V70.147h8.822a1.75,1.75,0,0,1,0,3.5H35a1.751,1.751,0,0,1-1.75-1.75V38.089A1.75,1.75,0,0,1,35,36.339ZM54.87,61.6l-2.2-5.113-.007-.017L48.593,47a1.75,1.75,0,0,0-3.215,0l-4.073,9.47-.005.011L39.1,61.6a1.749,1.749,0,0,0,3.214,1.382l1.752-4.072H49.9l1.751,4.072A1.75,1.75,0,0,0,54.87,61.6Zm-9.3-6.19,1.413-3.286L48.4,55.41Zm27.272,2.881v-6.6a5.756,5.756,0,0,0-5.75-5.75H60.935a1.751,1.751,0,0,0-1.75,1.75v14.6a1.75,1.75,0,0,0,1.75,1.75h6.159A5.756,5.756,0,0,0,72.844,58.291Zm-3.5,0a2.253,2.253,0,0,1-2.25,2.25H62.685v-11.1h4.409a2.253,2.253,0,0,1,2.25,2.25Zm16.2,2.25v-3.8H78.678a1.75,1.75,0,0,1-1.75-1.75v-7.3a1.751,1.751,0,0,1,1.75-1.75h8.614a1.75,1.75,0,0,1,0,3.5H80.428v3.8h6.864a1.75,1.75,0,0,1,1.75,1.75v7.3a1.75,1.75,0,0,1-1.75,1.75H78.678a1.75,1.75,0,0,1,0-3.5Z" fill="url(#a)"/></svg>
