<svg height="512" viewBox="0 0 128 128" width="512" xmlns="http://www.w3.org/2000/svg" xmlns:xlink="http://www.w3.org/1999/xlink"><linearGradient id="a" gradientUnits="userSpaceOnUse" x1="118.285" x2="9.715" y1="118.285" y2="9.715"><stop offset="0" stop-color="#f77c90"/><stop offset="1" stop-color="#8cc9fe"/></linearGradient><path d="m122.25 16.057h-116.5a5.757 5.757 0 0 0 -5.75 5.75v84.386a5.757 5.757 0 0 0 5.75 5.75h116.5a5.757 5.757 0 0 0 5.75-5.75v-84.386a5.757 5.757 0 0 0 -5.75-5.75zm0 92.386h-116.5a2.252 2.252 0 0 1 -2.25-2.25v-63.252h91.75a1.75 1.75 0 0 0 0-3.5h-91.75v-17.634a2.252 2.252 0 0 1 2.25-2.25h116.5a2.253 2.253 0 0 1 2.25 2.25v17.634h-13.86a1.75 1.75 0 0 0 0 3.5h13.86v63.252a2.253 2.253 0 0 1 -2.25 2.25zm-106.583-85.643a6.7 6.7 0 1 0 6.75 6.7 6.731 6.731 0 0 0 -6.75-6.7zm0 9.892a3.2 3.2 0 1 1 3.25-3.2 3.227 3.227 0 0 1 -3.25 3.208zm16-9.892a6.7 6.7 0 1 0 6.75 6.7 6.731 6.731 0 0 0 -6.75-6.7zm0 9.892a3.2 3.2 0 1 1 3.25-3.2 3.227 3.227 0 0 1 -3.25 3.208zm16-9.892a6.7 6.7 0 1 0 6.75 6.7 6.731 6.731 0 0 0 -6.75-6.7zm0 9.892a3.2 3.2 0 1 1 3.25-3.2 3.227 3.227 0 0 1 -3.25 3.208zm-37 42.194h23.664a1.751 1.751 0 0 0 1.75-1.75v-23.404a1.751 1.751 0 0 0 -1.75-1.75h-23.664a1.751 1.751 0 0 0 -1.75 1.75v23.407a1.751 1.751 0 0 0 1.75 1.75zm1.75-23.407h20.164v19.91h-20.164zm33.672 50.8a1.751 1.751 0 0 1 -1.75 1.75h-7.178a1.75 1.75 0 0 1 0-3.5h7.178a1.75 1.75 0 0 1 1.75 1.754zm73.1-20.686v20.686a1.751 1.751 0 0 1 -1.75 1.75h-60.439a1.75 1.75 0 0 1 0-3.5h58.684v-17.182h-103.368v17.186h12.184a1.75 1.75 0 0 1 0 3.5h-13.934a1.751 1.751 0 0 1 -1.75-1.75v-20.683a1.75 1.75 0 0 1 1.75-1.75h106.868a1.75 1.75 0 0 1 1.75 1.75zm0-20.162a1.75 1.75 0 0 1 -1.75 1.75h-73.1a1.75 1.75 0 0 1 0-3.5h73.1a1.751 1.751 0 0 1 1.745 1.754zm0 9.892a1.751 1.751 0 0 1 -1.75 1.75h-73.1a1.75 1.75 0 0 1 0-3.5h73.1a1.751 1.751 0 0 1 1.745 1.754zm0-19.783a1.751 1.751 0 0 1 -1.75 1.75h-73.1a1.75 1.75 0 0 1 0-3.5h73.1a1.751 1.751 0 0 1 1.745 1.754z" fill="url(#a)"/></svg>
